<?xml version="1.0" standalone="no"?>
<!DOCTYPE svg PUBLIC "-//W3C//DTD SVG 1.1//EN" "http://www.w3.org/Graphics/SVG/1.1/DTD/svg11.dtd" >
<svg>
<metadata>
Created by FontForge 20090622 at Wed Apr  8 22:55:20 2015
 By deploy user
&#60; info@fontfont.de &#62; Copyright Ole Schaefer, 1999. Published by FontShop International for  FontFont Release 25, Fago is a trademark of FSI Fonts and Software GmbH. Extraversion Fago Md V1.0 copyright 2005 by Ole Schaefer &#60; info@primetype.com &#62;
</metadata>
<defs>
<font id="MdFago" horiz-adv-x="560" >
  <font-face 
    font-family="MdFago"
    font-weight="400"
    font-stretch="normal"
    units-per-em="1000"
    panose-1="2 0 5 6 4 0 0 2 0 4"
    ascent="785"
    descent="-215"
    x-height="530"
    cap-height="700"
    bbox="-120 -200 1237 915"
    underline-thickness="50"
    underline-position="-50"
    unicode-range="U+000D-U+FB04"
  />
<missing-glyph horiz-adv-x="605" 
d="M100 0v700h405v-700h-405zM190 90h225v520h-225v-520z" />
    <glyph glyph-name="uniFB00" unicode="ff" horiz-adv-x="645" 
d="M200 461v-461h-90v461h-80v69h80v39q0 151 159 151q24 0 49.5 -5t38.5 -10l13 -5v-72q-49 18 -98 18q-72 0 -72 -72v-44h230v49q0 151 159 151q21 0 41 -3.5t30 -6.5l10 -4v-72q-37 12 -78 12q-72 0 -72 -72v-54h110l-10 -69h-100v-461h-90v461h-230z" />
    <glyph glyph-name="fi" unicode="fi" horiz-adv-x="620" 
d="M534 670q0 -25 -17 -42.5t-42 -17.5t-42 17.5t-17 42.5t17 42.5t42 17.5t42 -17.5t17 -42.5zM520 0h-90v461h-230v-461h-90v461h-80v69h80v49q0 151 159 151q23 0 46 -4t34 -8l11 -5v-72q-43 15 -88 15q-72 0 -72 -72v-54h320v-530z" />
    <glyph glyph-name="fl" unicode="fl" horiz-adv-x="615" 
d="M520 0h-90v618q-76 38 -138 38q-52 0 -72 -26t-20 -76v-24h110l-10 -69h-100v-461h-90v461h-80v69h80v29q0 171 179 171q31 0 67.5 -11t57.5 -21l21 -11l85 33v-720z" />
    <glyph glyph-name="uniFB03" unicode="ffi" horiz-adv-x="940" 
d="M854 670q0 -25 -17 -42.5t-42 -17.5t-42 17.5t-17 42.5t17 42.5t42 17.5t42 -17.5t17 -42.5zM430 461h-230v-461h-90v461h-80v69h80v39q0 151 159 151q24 0 49.5 -5t38.5 -10l13 -5v-72q-49 18 -98 18q-72 0 -72 -72v-44h230v49q0 151 159 151q23 0 46 -4t34 -8l11 -5
v-72q-43 15 -88 15q-72 0 -72 -72v-54h320v-530h-90v461h-230v-461h-90v461z" />
    <glyph glyph-name="uniFB04" unicode="ffl" horiz-adv-x="935" 
d="M430 461h-230v-461h-90v461h-80v69h80v39q0 151 159 151q24 0 49.5 -5t38.5 -10l13 -5v-72q-49 18 -98 18q-72 0 -72 -72v-44h230v29q0 171 179 171q31 0 67.5 -11t57.5 -21l21 -11l85 33v-720h-90v618q-76 38 -138 38q-52 0 -72 -26t-20 -76v-24h120l-10 -69h-110v-461
h-90v461z" />
    <glyph glyph-name=".notdef" horiz-adv-x="605" 
d="M100 0v700h405v-700h-405zM190 90h225v520h-225v-520z" />
    <glyph glyph-name=".null" horiz-adv-x="0" 
 />
    <glyph glyph-name=".null" horiz-adv-x="0" 
 />
    <glyph glyph-name="nonmarkingreturn" horiz-adv-x="333" 
 />
    <glyph glyph-name="CR" unicode="&#xd;" horiz-adv-x="290" 
 />
    <glyph glyph-name="space" unicode=" " horiz-adv-x="290" 
 />
    <glyph glyph-name="exclam" unicode="!" horiz-adv-x="341" 
d="M224 700l-15 -460h-76l-15 460h106zM241 63q0 -30 -20 -51.5t-50 -21.5t-50.5 21.5t-20.5 51.5t20.5 51t50.5 21t50 -21t20 -51z" />
    <glyph glyph-name="quotedbl" unicode="&#x22;" horiz-adv-x="513" 
d="M423 700l-21 -275h-72l-20 275h113zM203 700l-21 -275h-72l-20 275h113z" />
    <glyph glyph-name="numbersign" unicode="#" horiz-adv-x="580" 
d="M545 170h-100v-170h-80v170h-150v-170h-80v170h-100v78h100v204h-100v78h100v170h80v-170h150v170h80v-170h100v-78h-100v-204h100v-78zM365 248v204h-150v-204h150z" />
    <glyph glyph-name="dollar" unicode="$" 
d="M435 188q0 -149 -120 -180v-118h-80v110q-22 1 -48 6t-41 10l-14 4v82q62 -22 110 -22t75.5 21.5t27.5 79.5q0 23 -6.5 41.5t-23 35.5t-21.5 21t-25 19l-47 34q-16 12 -21.5 16.5t-23.5 22.5t-26.5 33t-17 40t-8.5 53q0 133 120 165v118h80v-111q19 -2 40 -7t32 -9l11 -4
v-79q-49 23 -100 23q-48 0 -71.5 -20.5t-23.5 -67.5q0 -15 4 -29t9 -23t14.5 -19t14.5 -14.5t16 -12t12 -8.5l43 -33q109 -84 109 -178z" />
    <glyph glyph-name="percent" unicode="%" horiz-adv-x="943" 
d="M883 175q0 -97 -48.5 -141t-118.5 -44q-32 0 -59.5 9t-53 28.5t-40 57.5t-14.5 90q0 96 50 140.5t117 44.5q68 0 117.5 -44.5t49.5 -140.5zM686 710l-340 -720h-88l340 720h88zM394 525q0 -97 -48.5 -141t-118.5 -44q-32 0 -59.5 9t-53 28.5t-40 57.5t-14.5 90
q0 96 50 140.5t117 44.5q68 0 117.5 -44.5t49.5 -140.5zM803 175q0 126 -87 126t-87 -126q0 -124 87 -124t87 124zM314 525q0 126 -87 126t-87 -126q0 -124 87 -124t87 124z" />
    <glyph glyph-name="ampersand" unicode="&#x26;" horiz-adv-x="715" 
d="M705 0l-120 -10l-88 97q-33 -42 -92 -69.5t-122 -27.5q-213 0 -213 196q0 45 15 81t43.5 60.5t47 36t48.5 25.5q-92 65 -92 156q0 77 47.5 121t128.5 44q86 0 134.5 -41t48.5 -112q0 -117 -146 -178l152 -161q39 65 39 208h90q0 -88 -21 -163t-49 -107zM403 550
q0 47 -22 68.5t-68 21.5q-93 0 -93 -95q0 -11 2.5 -21.5t5 -18t9 -17.5l10 -15t12.5 -14l12 -12t13.5 -12.5t11.5 -10.5q107 49 107 126zM444 144l-179 196q-105 -46 -105 -154q0 -60 35.5 -92t87.5 -32q47 0 92 23.5t69 58.5z" />
    <glyph glyph-name="quotesingle" unicode="'" horiz-adv-x="293" 
d="M203 700l-21 -275h-72l-20 275h113z" />
    <glyph glyph-name="parenleft" unicode="(" horiz-adv-x="313" 
d="M293 -150h-88q-6 10 -15.5 28.5t-34.5 74t-44.5 110.5t-35 129t-15.5 138t15 137t36 131.5t42.5 107.5t36.5 76l15 28h88l-14 -27t-32 -71t-40.5 -108t-32 -130t-14.5 -144t13.5 -142.5t33 -132.5t39.5 -105.5t34 -73.5z" />
    <glyph glyph-name="parenright" unicode=")" horiz-adv-x="313" 
d="M253 330q0 -101 -36.5 -221t-72.5 -189l-36 -70h-88l14 27t32 71t40.5 108t32 130t14.5 144q0 108 -33.5 228t-66.5 186l-33 66h88q6 -10 15.5 -28.5t34.5 -74t44.5 -110.5t35 -129t15.5 -138z" />
    <glyph glyph-name="asterisk" unicode="*" horiz-adv-x="469" 
d="M409 488l-46 -81l-101 80l19 -127h-93l19 127l-101 -80l-46 81l119 47l-119 47l46 81l101 -80l-19 127h93l-19 -127l101 80l46 -81l-119 -47z" />
    <glyph glyph-name="plus" unicode="+" horiz-adv-x="630" 
d="M540 290h-180v-185h-90v185h-180v90h180v185h90v-185h180v-90z" />
    <glyph glyph-name="comma" unicode="," horiz-adv-x="326" 
d="M236 125l-44 -275h-82l18 275h108z" />
    <glyph glyph-name="hyphen" unicode="-" horiz-adv-x="426" 
d="M346 295h-266v85h266v-85z" />
    <glyph glyph-name="period" unicode="." horiz-adv-x="341" 
d="M241 63q0 -30 -20 -51.5t-50 -21.5t-50.5 21.5t-20.5 51.5t20.5 51t50.5 21t50 -21t20 -51z" />
    <glyph glyph-name="slash" unicode="/" horiz-adv-x="322" 
d="M272 710l-140 -720h-82l140 720h82z" />
    <glyph glyph-name="zero" unicode="0" 
d="M500 280q0 -290 -220 -290q-30 0 -57.5 6.5t-58.5 25.5t-53 49.5t-36.5 84.5t-14.5 124q0 74 15.5 129.5t38 85.5t54.5 47.5t57.5 22.5t54.5 5q28 0 54.5 -5.5t58 -24.5t54 -49t38 -84.5t15.5 -126.5zM410 280q0 221 -130 221t-130 -221q0 -68 13 -115t35 -68t41.5 -29
t40.5 -8q22 0 42 8.5t41.5 30t34 68t12.5 113.5z" />
    <glyph glyph-name="one" unicode="1" 
d="M510 0h-410v79h160v384l-170 -54v78l190 73h70v-481h160v-79z" />
    <glyph glyph-name="two" unicode="2" 
d="M482 84l-10 -84h-372v86l110 93q2 2 36 29.5t46.5 40t36 39t33 51.5t9.5 52q0 101 -112 101q-32 0 -71.5 -8t-62.5 -16l-23 -8v75q77 35 163 35q87 0 141.5 -43t54.5 -131q0 -36 -13 -70t-27.5 -57t-46.5 -52.5t-48.5 -42.5t-55.5 -41l-66 -49h278z" />
    <glyph glyph-name="three" unicode="3" 
d="M460 107q0 -130 -109 -190q-89 -48 -251 -52v73q132 6 192 38q39 20 58.5 49.5t19.5 81.5q0 111 -139 111h-81v73h82q122 0 122 109q0 95 -107 95q-28 0 -65 -6t-60 -12l-22 -6v73q81 26 153 26q36 0 68 -8.5t60.5 -26.5t45.5 -51.5t17 -79.5q0 -57 -34 -94t-84 -52
q23 -5 43.5 -14.5t42.5 -26.5t35 -45.5t13 -64.5z" />
    <glyph glyph-name="four" unicode="4" 
d="M533 130l-10 -84h-98v-151l-90 -10v161h-285v72l106 442h106l-124 -430h197l14 240h76v-240h108z" />
    <glyph glyph-name="five" unicode="5" 
d="M475 125q0 -127 -106 -195q-93 -59 -254 -66v75q130 3 200 50q70 46 70 131q0 70 -29 95t-78 25q-30 0 -61.5 -9t-47.5 -18l-16 -9l-43 12l10 344h355l-10 -84h-261l-8 -182q42 20 90 20q24 0 45.5 -3t49 -15t47.5 -31.5t33.5 -55.5t13.5 -84z" />
    <glyph glyph-name="six" unicode="6" 
d="M495 223q0 -71 -21 -120t-56 -72t-68 -32t-70 -9q-215 0 -215 290q0 78 20 147.5t62.5 130t118.5 98.5t177 43v-72q-122 -13 -190.5 -66t-93.5 -177q65 46 131 46q37 0 70.5 -9.5t65 -31t50.5 -64t19 -102.5zM405 223q0 75 -30.5 106.5t-94.5 31.5q-28 0 -58.5 -9.5
t-47.5 -18.5l-16 -9q-3 -35 -3 -54q0 -121 34 -166t91 -45t91 33t34 131z" />
    <glyph glyph-name="seven" unicode="7" 
d="M500 486q-130 -153 -176 -271t-46 -310l-94 -10q0 150 24.5 252t70 173.5t131.5 155.5h-350v84h440v-74z" />
    <glyph glyph-name="eight" unicode="8" 
d="M503 174q0 -51 -20.5 -88.5t-54.5 -57.5t-71 -29t-77 -9q-223 0 -223 181q0 57 35.5 103.5t81.5 68.5q-30 19 -47.5 33t-34.5 46.5t-17 74.5q0 40 13.5 71t34 49.5t48.5 31t54.5 17t54.5 4.5q35 0 67.5 -7.5t65.5 -25.5t52.5 -53.5t19.5 -85.5q0 -95 -107 -152
q125 -53 125 -172zM395 495q0 62 -32 83.5t-83 21.5q-53 0 -84 -22t-31 -83q0 -72 84 -102l67 -24q25 19 37.5 30.5t27 38t14.5 57.5zM413 176q0 30 -9 51t-29 34.5t-34.5 19.5t-43.5 16l-69 23q-45 -39 -59 -60q-22 -36 -22 -84q0 -116 133 -116t133 116z" />
    <glyph glyph-name="nine" unicode="9" 
d="M496 266q0 -99 -32 -177t-85.5 -124.5t-115.5 -71.5t-129 -29v73q230 32 270 242q-63 -48 -136 -48q-92 0 -148 55t-56 152q0 107 57.5 169.5t159.5 62.5q113 0 164 -82t51 -222zM408 246q3 72 -6.5 126.5t-40 92.5t-80.5 38q-64 0 -95.5 -42t-31.5 -112q0 -150 123 -150
q56 0 131 47z" />
    <glyph glyph-name="colon" unicode=":" horiz-adv-x="341" 
d="M241 468q0 -30 -20 -51.5t-50 -21.5t-50.5 21.5t-20.5 51.5t20.5 51t50.5 21t50 -21t20 -51zM241 63q0 -30 -20 -51.5t-50 -21.5t-50.5 21.5t-20.5 51.5t20.5 51t50.5 21t50 -21t20 -51z" />
    <glyph glyph-name="semicolon" unicode=";" horiz-adv-x="341" 
d="M241 468q0 -30 -20 -51.5t-50 -21.5t-50.5 21.5t-20.5 51.5t20.5 51t50.5 21t50 -21t20 -51zM232 125l-44 -275h-82l18 275h108z" />
    <glyph glyph-name="less" unicode="&#x3c;" horiz-adv-x="630" 
d="M540 90l-450 205v80l450 205v-100l-353 -143l353 -147v-100z" />
    <glyph glyph-name="equal" unicode="=" horiz-adv-x="630" 
d="M540 390h-450v90h450v-90zM540 190h-450v90h450v-90z" />
    <glyph glyph-name="greater" unicode="&#x3e;" horiz-adv-x="630" 
d="M540 295l-450 -205v100l353 147l-353 143v100l450 -205v-80z" />
    <glyph glyph-name="question" unicode="?" horiz-adv-x="423" 
d="M353 562q0 -11 -1.5 -21.5t-3 -18.5t-6 -17.5t-6.5 -15t-9 -15t-9 -13t-11 -13l-10.5 -11l-11.5 -11.5l-11 -11q-51 -53 -51 -117q0 -30 5 -58h-84q-4 25 -4 53q0 41 13.5 76.5t26.5 52.5t37 42t36 45.5t12 50.5q0 44 -20.5 58t-62.5 14q-26 0 -56.5 -7t-47.5 -13l-18 -7
v74q61 31 132 31q161 0 161 -148zM255 63q0 -30 -20 -51.5t-50 -21.5t-50.5 21.5t-20.5 51.5t20.5 51t50.5 21t50 -21t20 -51z" />
    <glyph glyph-name="at" unicode="@" horiz-adv-x="1019" 
d="M939 326q0 -150 -62.5 -231.5t-155.5 -81.5q-32 0 -56 12t-35 29.5t-18 34.5t-8 29l-1 12q-2 -5 -6.5 -13t-19.5 -28.5t-32 -36.5t-45 -29t-59 -13q-138 0 -138 176q0 130 66.5 221t164.5 91q31 0 56 -9t35 -19l10 -9l14 29h69l-48 -289q-3 -19 -3 -37q0 -75 56 -75
t93.5 56.5t37.5 180.5q0 151 -88 230t-226 79q-157 0 -266 -112t-109 -297q0 -78 19 -139.5t49.5 -100.5t71.5 -64.5t81.5 -36t83.5 -10.5q44 0 92.5 5.5t75.5 10.5l26 5v-79q-104 -17 -194 -17q-60 0 -114.5 13t-105.5 45t-88 79.5t-59.5 121.5t-22.5 167q0 146 64 258
t168 169t228 57q178 0 288.5 -102t110.5 -282zM616 406q-27 23 -77 23q-61 0 -104 -67t-43 -174q0 -108 61 -108q32 0 64.5 32.5t48.5 65.5l16 32z" />
    <glyph glyph-name="A" unicode="A" horiz-adv-x="540" 
d="M520 0h-98l-37 156h-230l-37 -156h-98l193 700h114zM368 234l-62 254l-36 155q-19 -87 -36 -155l-62 -254h196z" />
    <glyph glyph-name="B" unicode="B" horiz-adv-x="580" 
d="M510 200q0 -39 -7 -69t-18.5 -51.5t-32.5 -36t-42 -23t-54.5 -13t-64 -6t-74.5 -1.5h-117v700h127q140 0 201.5 -36.5t61.5 -145.5q0 -62 -35 -102t-85 -52q140 -21 140 -164zM400 515q0 69 -39 90.5t-136 21.5h-35v-232h37q97 0 135 24t38 96zM420 200q0 74 -47 99.5
t-146 25.5h-37v-252h44q102 0 144 24.5t42 102.5z" />
    <glyph glyph-name="C" unicode="C" horiz-adv-x="470" 
d="M420 10q-62 -20 -122 -20q-35 0 -62 5.5t-60 27.5t-54.5 59t-36.5 105.5t-15 162.5q0 360 240 360q27 0 54.5 -5t41.5 -11l14 -5v-76q-60 20 -112 20q-24 0 -42.5 -5.5t-39.5 -23t-34.5 -47t-22.5 -82.5t-9 -125q0 -158 37 -219.5t101 -61.5q23 0 53.5 5.5t49.5 10.5
l19 5v-80z" />
    <glyph glyph-name="D" unicode="D" horiz-adv-x="590" 
d="M520 350q0 -75 -10.5 -132.5t-31.5 -95.5t-46.5 -62.5t-63.5 -37.5t-75 -17.5t-86 -4.5h-107v700h117q59 0 100.5 -6.5t82.5 -27.5t65.5 -58.5t39.5 -102t15 -155.5zM430 350q0 73 -10 123.5t-25 79t-42.5 44t-54 20t-67.5 4.5h-41v-542h33q43 0 71.5 5t56 21t44 45.5
t26 79t9.5 120.5z" />
    <glyph glyph-name="E" unicode="E" horiz-adv-x="490" 
d="M440 0h-340v700h340v-84h-250v-196h230v-78h-230v-258h250v-84z" />
    <glyph glyph-name="F" unicode="F" horiz-adv-x="480" 
d="M440 700l-10 -85h-240v-195h230v-78h-230v-342h-90v700h340z" />
    <glyph glyph-name="G" unicode="G" horiz-adv-x="615" 
d="M520 30q-129 -40 -213 -40q-40 0 -71 6.5t-63.5 29t-54 60.5t-35 105t-13.5 159q0 90 19.5 158t48.5 105.5t69.5 60t74 29.5t71.5 7t74.5 -8t54.5 -16l18 -8v-78q-70 32 -147 32q-193 0 -193 -282q0 -86 12 -144t34 -86.5t46.5 -39.5t57.5 -11q24 0 54 4.5t48 8.5l18 5
v256h-110v77h200v-390z" />
    <glyph glyph-name="H" unicode="H" horiz-adv-x="630" 
d="M530 0h-90v342h-250v-342h-90v700h90v-280h250v280h90v-700z" />
    <glyph glyph-name="I" unicode="I" horiz-adv-x="292" 
d="M192 0h-92v700h92v-700z" />
    <glyph glyph-name="J" unicode="J" horiz-adv-x="345" 
d="M250 125q0 -73 -35 -104t-100 -31q-21 0 -47.5 4t-41.5 8l-16 5v76q56 -15 93 -15q32 0 44.5 16t12.5 57v559h90v-575z" />
    <glyph glyph-name="K" unicode="K" horiz-adv-x="545" 
d="M530 0l-105 -10l-205 390l191 320h109l-207 -316zM190 0h-90v700h90v-700z" />
    <glyph glyph-name="L" unicode="L" horiz-adv-x="440" 
d="M400 84l-10 -84h-290v700h90v-616h210z" />
    <glyph glyph-name="M" unicode="M" horiz-adv-x="770" 
d="M675 0h-90q-1 68 -2 202t-3 201q0 68 6 140q-24 -58 -69 -146l-132 -250l-132 250q-45 88 -69 146q6 -72 6 -140v-21l-5 -382h-90l10 700h82l198 -395l198 395h82z" />
    <glyph glyph-name="N" unicode="N" horiz-adv-x="620" 
d="M520 0h-79l-185 381q-20 41 -40 88t-30 73l-10 27q14 -135 14 -210v-359h-90v700h89l176 -366q25 -52 45 -101t28 -72l7 -23q-15 141 -15 218v344h90v-700z" />
    <glyph glyph-name="O" unicode="O" horiz-adv-x="570" 
d="M510 350q0 -98 -15.5 -168t-37.5 -106.5t-55.5 -56.5t-58.5 -24.5t-58 -4.5q-27 0 -48 3.5t-49 14.5t-49 35.5t-40 62.5t-29 100.5t-10 143.5t10.5 143.5t30 100.5t41 62.5t49.5 35.5t48.5 14.5t45.5 3.5q30 0 55 -4.5t58.5 -25.5t56 -57.5t39 -106.5t16.5 -166zM420 350
q0 289 -135 289q-29 0 -51 -12t-42 -42t-31 -89.5t-11 -145.5q0 -289 135 -289t135 289z" />
    <glyph glyph-name="P" unicode="P" horiz-adv-x="540" 
d="M490 463q0 -133 -73.5 -187t-226.5 -54v-222h-90v700h127q134 0 198.5 -49.5t64.5 -187.5zM400 460q0 46 -8.5 76.5t-21 47.5t-38 25.5t-48 10.5t-63.5 2h-31v-331q119 3 164.5 38t45.5 131z" />
    <glyph glyph-name="Q" unicode="Q" horiz-adv-x="570" 
d="M510 350q0 -84 -11.5 -148.5t-29 -101.5t-43.5 -61.5t-49.5 -34t-51.5 -12.5l95 -182h-120l-55 182q-185 22 -185 358q0 81 10.5 143.5t30 100.5t41 62.5t49.5 35.5t48.5 14.5t45.5 3.5q30 0 55 -4.5t58.5 -25.5t56 -57.5t39 -106.5t16.5 -166zM420 350q0 289 -135 289
q-29 0 -51 -12t-42 -42t-31 -89.5t-11 -145.5q0 -291 135 -291t135 291z" />
    <glyph glyph-name="R" unicode="R" horiz-adv-x="550" 
d="M510 0h-108l-51 159q-33 101 -73 138q-16 -2 -88 -7v-290h-90v700h147q46 0 79.5 -4t68 -16t56.5 -33t35.5 -57.5t13.5 -86.5q0 -145 -137 -188q40 -35 70 -114zM410 503q0 33 -8.5 55t-21 34t-38.5 18t-48.5 7.5t-63.5 1.5h-40v-256q124 4 172 34t48 106z" />
    <glyph glyph-name="S" unicode="S" horiz-adv-x="460" 
d="M405 188q0 -60 -17 -101t-48.5 -61.5t-66 -28t-79.5 -7.5q-30 0 -63 5t-51 11l-18 5v82q78 -24 130 -24q57 0 90 24.5t33 87.5q0 43 -20.5 70t-60.5 54l-72 49q-107 73 -107 173q0 50 18.5 87.5t49 57.5t64.5 29t71 9q32 0 62 -6t44 -12l14 -5v-79q-63 25 -120 25
q-115 0 -115 -98q0 -35 20 -59.5t60 -52.5l56 -39q39 -27 62 -48t43.5 -60.5t20.5 -87.5z" />
    <glyph glyph-name="T" unicode="T" horiz-adv-x="470" 
d="M450 700l-10 -85h-160v-615h-90v615h-170v85h430z" />
    <glyph glyph-name="U" unicode="U" horiz-adv-x="596" 
d="M501 190q0 -102 -50 -151t-153 -49q-107 0 -155 47t-48 153v510h90v-525q0 -58 27 -83t86 -25q113 0 113 108v525h90v-510z" />
    <glyph glyph-name="V" unicode="V" horiz-adv-x="500" 
d="M490 700l-184 -700h-112l-184 700h105l100 -470l35 -185q20 113 35 185l100 470h105z" />
    <glyph glyph-name="W" unicode="W" horiz-adv-x="800" 
d="M780 700l-132 -700h-117l-99 476l-32 177q-18 -106 -33 -177l-100 -476h-116l-131 700h104l63 -473l21 -179q18 118 31 179l100 473h123l98 -473l31 -179l23 179l62 473h104z" />
    <glyph glyph-name="X" unicode="X" horiz-adv-x="500" 
d="M490 0h-112l-128 305l-130 -305h-110l184 364l-174 336h113l117 -283l117 283h113l-173 -336z" />
    <glyph glyph-name="Y" unicode="Y" horiz-adv-x="480" 
d="M480 700l-195 -407v-293h-90v293l-195 407h108l132 -340l132 340h108z" />
    <glyph glyph-name="Z" unicode="Z" horiz-adv-x="445" 
d="M400 0h-350v71l252 545h-252v84h350v-71l-252 -545h252v-84z" />
    <glyph glyph-name="bracketleft" unicode="[" horiz-adv-x="350" 
d="M340 -130h-240v960h240v-81h-150v-798h150v-81z" />
    <glyph glyph-name="backslash" unicode="\" horiz-adv-x="322" 
d="M272 -10h-82l-140 720h82z" />
    <glyph glyph-name="bracketright" unicode="]" horiz-adv-x="350" 
d="M250 -130h-240v81h150v798h-150v81h240v-960z" />
    <glyph glyph-name="asciicircum" unicode="^" horiz-adv-x="506" 
d="M466 420h-102l-111 274l-111 -274h-102l164 350h98z" />
    <glyph glyph-name="underscore" unicode="_" horiz-adv-x="550" 
d="M550 -190h-550v90h550v-90z" />
    <glyph glyph-name="grave" unicode="`" horiz-adv-x="296" 
d="M256 620h-92l-124 150h118z" />
    <glyph glyph-name="a" unicode="a" horiz-adv-x="540" 
d="M445 0h-77l-10 62l-5.5 -8t-16.5 -17t-27.5 -21.5t-38.5 -17.5t-50 -8q-155 0 -155 166q0 170 203 170h87v58q0 50 -23.5 65t-76.5 15q-55 0 -145 -27v76q76 27 159 27q40 0 68.5 -6.5t54.5 -24t39.5 -53t13.5 -88.5v-368zM355 119v152l-65 -1q-68 -1 -101.5 -23
t-33.5 -83t22.5 -81t62.5 -20q27 0 56 14t44 28z" />
    <glyph glyph-name="b" unicode="b" horiz-adv-x="580" 
d="M510 268q0 -73 -18 -127t-42.5 -82t-59.5 -44.5t-60 -20.5t-52 -4q-43 0 -87.5 8t-67.5 16l-23 7v699h90v-242q6 7 16.5 17.5t44.5 27.5t69 17q190 0 190 -272zM420 268q0 56 -8 95.5t-18.5 59t-29 30t-31 12t-33.5 1.5q-50 0 -110 -47v-347q40 -10 91 -10q139 0 139 206
z" />
    <glyph glyph-name="c" unicode="c" horiz-adv-x="450" 
d="M400 10q-52 -20 -107 -20q-31 0 -56 4t-58 20t-55.5 44t-38 80.5t-15.5 123.5q0 72 16.5 125.5t40.5 81.5t57.5 45t59 21.5t54.5 4.5q25 0 50.5 -5t38.5 -9l13 -5v-77q-50 19 -99 19q-29 0 -50 -6t-44 -24.5t-35 -61.5t-12 -109q0 -60 11.5 -100.5t32.5 -59.5t41.5 -25.5
t47.5 -6.5q21 0 48 5t43 11l16 5v-81z" />
    <glyph glyph-name="d" unicode="d" horiz-adv-x="590" 
d="M490 0h-68l-11 57q-55 -67 -146 -67q-34 0 -63.5 10t-61.5 36.5t-51 85t-19 143.5q0 70 16.5 122.5t39.5 80.5t54.5 45.5t56 22t48.5 4.5q70 0 115 -49v229h90v-720zM400 113v313q-50 39 -105 39q-27 0 -47.5 -7t-42 -26.5t-33.5 -62t-12 -104.5q0 -54 8 -92.5t19.5 -59
t29.5 -32t33 -14.5t35 -3q55 0 115 49z" />
    <glyph glyph-name="e" unicode="e" horiz-adv-x="525" 
d="M460 265l-1 -28h-300q1 -49 11.5 -82.5t22.5 -50t34 -25t34 -9.5t34 -1q23 0 57 6.5t57 12.5l23 7v-80q-69 -25 -137 -25q-37 0 -64 4t-59.5 20t-53 44t-34.5 81t-14 126q0 275 200 275q31 0 56.5 -6t52.5 -24t45 -47t28 -79.5t8 -118.5zM371 299q0 103 -26.5 138
t-74.5 35q-53 0 -80 -36.5t-30 -136.5h211z" />
    <glyph glyph-name="f" unicode="f" horiz-adv-x="325" 
d="M350 644q-37 12 -78 12q-72 0 -72 -72v-54h110l-10 -69h-100v-461h-90v461h-80v69h80v49q0 151 159 151q21 0 41 -3.5t30 -6.5l10 -4v-72z" />
    <glyph glyph-name="g" unicode="g" horiz-adv-x="508" 
d="M498 462h-92q38 -50 38 -100q0 -87 -49.5 -133t-135.5 -46q-42 0 -79 14q-31 -33 -31 -51q0 -22 12 -28.5t48 -8.5l123 -6q79 -4 117 -33.5t38 -99.5q0 -93 -62.5 -131.5t-177.5 -38.5q-89 0 -140.5 35t-51.5 106q0 30 17 61.5t43 48.5q-40 23 -40 74q0 42 61 97
q-63 50 -63 140t49 134t137 44q20 0 48 -5t49 -5h142v-68zM358 362q0 54 -25 85t-74 31q-53 0 -76 -28.5t-23 -87.5q0 -54 25.5 -85.5t73.5 -31.5q50 0 74.5 31t24.5 86zM403 -38q0 36 -17.5 48.5t-63.5 14.5l-136 8q-9 0 -23 2q-27 -40 -27 -74q0 -45 27.5 -71.5
t83.5 -26.5q83 0 119.5 25t36.5 74z" />
    <glyph glyph-name="h" unicode="h" horiz-adv-x="605" 
d="M510 0h-90v385q0 25 -6 40t-19 22t-26 9t-34 2q-30 0 -66.5 -13.5t-57.5 -26.5l-21 -14v-404h-90v720h90v-254l24 20.5t59.5 33t84.5 20.5q72 0 112 -36t40 -122v-382z" />
    <glyph glyph-name="i" unicode="i" horiz-adv-x="290" 
d="M204 670q0 -25 -17 -42.5t-42 -17.5t-42 17.5t-17 42.5t17 42.5t42 17.5t42 -17.5t17 -42.5zM190 0h-90v530h90v-530z" />
    <glyph glyph-name="j" unicode="j" horiz-adv-x="290" 
d="M204 670q0 -25 -17 -42.5t-42 -17.5t-42 17.5t-17 42.5t17 42.5t42 17.5t42 -17.5t17 -42.5zM190 -61q0 -76 -35 -107.5t-97 -31.5q-19 0 -43.5 4t-39.5 8l-15 3v77q60 -13 87 -13q29 0 41 13.5t12 48.5v589h90v-591z" />
    <glyph glyph-name="k" unicode="k" horiz-adv-x="510" 
d="M500 0l-105 -10l-184 315l158 225h111l-177 -223zM190 0h-90v720h90v-720z" />
    <glyph glyph-name="l" unicode="l" horiz-adv-x="280" 
d="M185 0h-90v720h90v-720z" />
    <glyph glyph-name="m" unicode="m" horiz-adv-x="865" 
d="M770 0h-90v386q0 44 -17.5 58.5t-52.5 14.5q-26 0 -58.5 -13t-51.5 -26l-20 -13v-407h-90v386q0 44 -17.5 58.5t-52.5 14.5q-29 0 -61.5 -13t-50.5 -26l-18 -13v-407h-90v530h67l20 -64q8 8 22.5 20.5t55.5 33t78 20.5q49 0 84.5 -20.5t42.5 -58.5q8 9 23 22t58 35t82 22
q67 0 102 -35.5t35 -122.5v-382z" />
    <glyph glyph-name="n" unicode="n" horiz-adv-x="605" 
d="M510 0h-90v386q0 25 -7 41t-21.5 22.5t-26 8t-30.5 1.5q-32 0 -68.5 -13.5t-56.5 -26.5l-20 -13v-406h-90v530h67l20 -65q3 3 9 8t24.5 18t37.5 23t46.5 18t53.5 8q72 0 112 -36t40 -122v-382z" />
    <glyph glyph-name="o" unicode="o" horiz-adv-x="554" 
d="M494 265q0 -71 -14 -123t-34.5 -80.5t-51.5 -45.5t-57.5 -21.5t-59.5 -4.5t-59.5 5t-57.5 22t-51.5 46t-34.5 80.5t-14 121.5q0 275 217 275q32 0 59 -5t57.5 -22t51.5 -45.5t35 -80.5t14 -122zM404 265q0 56 -8.5 96t-20 61t-30.5 32.5t-33.5 14t-34.5 2.5t-34.5 -3
t-33.5 -14.5t-30.5 -32.5t-20 -61t-8.5 -95q0 -54 9.5 -94t22 -61t31.5 -33t33 -14.5t31 -2.5q127 0 127 205z" />
    <glyph glyph-name="p" unicode="p" horiz-adv-x="580" 
d="M510 268q0 -72 -17 -126t-41 -82t-56.5 -45t-55 -21t-45.5 -4q-59 0 -105 29v-209h-90v720h69l13 -58q56 68 138 68q190 0 190 -272zM420 268q0 115 -29 156.5t-81 41.5q-71 0 -120 -47v-337q56 -20 98 -20q132 0 132 206z" />
    <glyph glyph-name="q" unicode="q" horiz-adv-x="590" 
d="M490 -190h-90v224q-57 -44 -115 -44q-18 0 -32.5 1t-38 7t-41.5 16.5t-38.5 31.5t-33.5 49.5t-22 73t-9 99.5q0 71 17 123.5t41 80t56.5 44t55 20.5t45.5 4q43 0 75.5 -18.5t49.5 -43.5l15 52h65v-720zM400 98v320q-48 48 -105 48q-29 0 -50 -7t-42 -26t-32 -60.5
t-11 -104.5q0 -53 8.5 -92t21.5 -60t32 -33.5t35.5 -16t37.5 -3.5q42 0 105 35z" />
    <glyph glyph-name="r" unicode="r" horiz-adv-x="358" 
d="M338 436q-30 10 -65 10q-22 0 -43 -10.5t-30 -21.5l-10 -10v-404h-90v530h69l13 -70q1 3 3.5 8.5t12.5 19.5t21.5 24.5t31.5 19t43 8.5l44 -6v-98z" />
    <glyph glyph-name="s" unicode="s" horiz-adv-x="434" 
d="M374 145q0 -47 -16 -79t-44.5 -48t-59 -22t-69.5 -6q-25 0 -54 5t-46 11l-17 5v80q75 -24 117 -24q103 0 103 78q0 21 -4.5 34.5t-16.5 23.5t-21 14l-30 13l-52 21q-104 43 -104 141q0 70 47.5 109t126.5 39q31 0 61 -5t45 -11l14 -5v-75q-62 21 -117 21q-92 0 -92 -68
q0 -16 5 -28.5t9 -19t17 -14t16 -8.5t18 -7l52 -21q52 -21 82 -54.5t30 -99.5z" />
    <glyph glyph-name="t" unicode="t" horiz-adv-x="370" 
d="M340 6q-45 -16 -100 -16q-61 0 -90.5 29.5t-29.5 103.5v338h-90v69h90v150l90 10v-160h130l-10 -69h-120v-341q0 -33 11 -43.5t39 -10.5q15 0 35 4t33 8l12 4v-76z" />
    <glyph glyph-name="u" unicode="u" horiz-adv-x="585" 
d="M485 0h-73l-11 69q-8 -9 -22.5 -22t-56.5 -35t-82 -22q-145 0 -145 155v385h90v-365q0 -50 16 -72t59 -22q29 0 62.5 14t53.5 28l19 14v403h90v-530z" />
    <glyph glyph-name="v" unicode="v" horiz-adv-x="490" 
d="M475 530l-177 -530h-107l-176 530h103l93 -339q8 -30 16.5 -67t12.5 -59l5 -22q15 79 34 148l93 339h103z" />
    <glyph glyph-name="w" unicode="w" horiz-adv-x="780" 
d="M755 530l-129 -530h-114l-78 282q-11 39 -22 87.5t-16 77.5l-6 29q-22 -109 -45 -193l-78 -283h-113l-129 530h102l54 -304l29 -183q22 112 41 183l82 304h114l82 -304q9 -35 19.5 -80.5t15.5 -73.5l6 -29q15 105 29 183l56 304h100z" />
    <glyph glyph-name="x" unicode="x" horiz-adv-x="490" 
d="M485 0h-115l-125 220l-125 -220h-115l188 285l-178 245h119l111 -190l112 190h118l-178 -245z" />
    <glyph glyph-name="y" unicode="y" horiz-adv-x="475" 
d="M460 530l-173 -590q-17 -59 -44.5 -91.5t-51.5 -40.5t-58 -8q-20 0 -43 4t-36 8l-13 3v74q62 -14 89 -14t45.5 21t31.5 78l6 27l-198 529h108l131 -429l104 429h102z" />
    <glyph glyph-name="z" unicode="z" horiz-adv-x="440" 
d="M395 0h-345v65l240 388h-240v77h345v-65l-240 -388h240v-77z" />
    <glyph glyph-name="braceleft" unicode="{" horiz-adv-x="343" 
d="M333 -130h-17q-102 0 -152.5 48t-50.5 155v124q0 29 -9.5 52t-23.5 34t-27.5 18t-22.5 9l-10 1v80q4 0 10 1.5t22 9t28.5 18.5t22.5 33.5t10 51.5v122q0 107 50.5 155t152.5 48h17v-78h-17q-61 0 -87 -29.5t-26 -98.5v-129q0 -55 -30.5 -93t-76.5 -52q48 -12 77.5 -48.5
t29.5 -94.5v-131q0 -69 26 -98.5t87 -29.5h17v-78z" />
    <glyph glyph-name="bar" unicode="|" horiz-adv-x="290" 
d="M190 -110h-90v920h90v-920z" />
    <glyph glyph-name="braceright" unicode="}" horiz-adv-x="343" 
d="M323 311q-4 0 -10 -1.5t-22 -8.5t-28.5 -18t-22.5 -33.5t-10 -52.5v-124q0 -107 -50.5 -155t-152.5 -48h-17v78h17q61 0 87 29.5t26 98.5v131q0 58 29.5 94.5t77.5 48.5q-46 14 -76.5 52t-30.5 93v129q0 69 -26 98.5t-87 29.5h-17v78h17q102 0 152.5 -48t50.5 -155v-122
q0 -29 9.5 -51.5t23 -33.5t27.5 -18t24 -9l9 -2v-80z" />
    <glyph glyph-name="asciitilde" unicode="~" horiz-adv-x="720" 
d="M630 290q-52 -38 -118 -38q-64 0 -153 39l-32 14q-54 24 -105 24q-66 0 -132 -39v90q60 39 133 39q59 0 134 -30l33 -13q91 -35 124 -35q50 0 116 38v-89z" />
    <glyph glyph-name="uni00A0" unicode="&#xa0;" horiz-adv-x="290" 
 />
    <glyph glyph-name="exclamdown" unicode="&#xa1;" horiz-adv-x="341" 
d="M241 467q0 -30 -20.5 -51t-50.5 -21t-50 21t-20 51t20 51.5t50 21.5t50.5 -21.5t20.5 -51.5zM223 -170h-106l15 460h76z" />
    <glyph glyph-name="cent" unicode="&#xa2;" 
d="M465 10q-42 -16 -90 -19v-101h-80v106q-160 33 -160 266q0 229 160 270v108h80v-100q23 -1 45.5 -5.5t33.5 -8.5l11 -5v-77q-50 19 -99 19q-29 0 -50 -6t-44 -24.5t-35 -61.5t-12 -109q0 -60 11.5 -100.5t32.5 -59.5t41.5 -25.5t47.5 -6.5q21 0 48 5t43 11l16 5v-81z" />
    <glyph glyph-name="sterling" unicode="&#xa3;" 
d="M510 0h-449v81h120v249h-120v76h120v84q0 97 50.5 138.5t125.5 41.5q42 0 77.5 -7t50.5 -14l15 -7v-79q-68 28 -137 28q-20 0 -33.5 -3t-29 -12t-23.5 -31t-8 -55v-84h201l-10 -76h-191v-249h241v-81z" />
    <glyph glyph-name="currency" unicode="&#xa4;" 
d="M487 105l-64 -63l-69 69q-42 -21 -98 -21t-98 21l-69 -69l-64 63l66 66q-32 51 -32 134t32 134l-66 66l64 63l69 -69q42 21 98 21t98 -21l69 69l64 -63l-66 -66q32 -51 32 -134t-32 -134zM363 305q0 146 -107 146t-107 -146t107 -146t107 146z" />
    <glyph glyph-name="yen" unicode="&#xa5;" 
d="M524 660l-163 -287h134v-84h-170v-87h170v-84h-170v-118h-90v118h-170v84h170v87h-170v84h134l-163 287h107l137 -284l137 284h107z" />
    <glyph glyph-name="brokenbar" unicode="&#xa6;" horiz-adv-x="290" 
d="M190 420h-90v390h90v-390zM190 -110h-90v390h90v-390z" />
    <glyph glyph-name="section" unicode="&#xa7;" horiz-adv-x="450" 
d="M400 324q0 -66 -71 -115q53 -41 53 -113q0 -80 -50.5 -119t-133.5 -39q-32 0 -67 6t-54 12l-19 6v79q82 -29 137 -29q99 0 99 79q0 37 -18.5 53.5t-56.5 29.5l-65 23q-48 18 -76 46.5t-28 80.5q0 60 72 112q-54 45 -54 116q0 76 49.5 117t134.5 41q38 0 73 -8t51 -16
l16 -7v-75q-69 31 -137 31q-50 0 -74.5 -17.5t-24.5 -60.5q0 -20 6 -34t20.5 -24t23 -14t28.5 -12l62 -24q49 -19 76.5 -46.5t27.5 -78.5zM315 315q0 27 -14.5 40.5t-47.5 25.5l-75 27q-43 -34 -43 -75q0 -27 14.5 -40t47.5 -25l81 -29q16 14 26.5 35.5t10.5 40.5z" />
    <glyph glyph-name="dieresis" unicode="&#xa8;" horiz-adv-x="467" 
d="M407 670q0 -25 -17 -42.5t-42 -17.5t-42 17.5t-17 42.5t17 42.5t42 17.5t42 -17.5t17 -42.5zM178 670q0 -25 -17 -42.5t-42 -17.5t-42 17.5t-17 42.5t17 42.5t42 17.5t42 -17.5t17 -42.5z" />
    <glyph glyph-name="copyright" unicode="&#xa9;" horiz-adv-x="810" 
d="M750 345q0 -163 -97 -259t-248 -96t-248 95t-97 260q0 162 97.5 258.5t247.5 96.5t247.5 -96.5t97.5 -258.5zM670 345q0 127 -74.5 203.5t-190.5 76.5t-190.5 -75.5t-74.5 -204.5q0 -128 74.5 -204t190.5 -76t190.5 76.5t74.5 203.5zM521 167q-47 -19 -96 -19
q-28 0 -54 8.5t-53 28.5t-43 61.5t-16 100.5q0 49 13 86.5t31.5 57.5t43.5 33t44.5 16.5t39.5 3.5t42.5 -5t34.5 -10l13 -5v-65q-49 19 -90 19q-17 0 -29.5 -3.5t-28 -15t-24 -40t-8.5 -72.5q0 -130 84 -130q16 0 40 4.5t40 8.5l16 5v-68z" />
    <glyph glyph-name="ordfeminine" unicode="&#xaa;" horiz-adv-x="490" 
d="M395 260h-73l-10 62q-6 -8 -16 -20t-41.5 -32t-63.5 -20q-51 0 -88.5 33t-37.5 103q0 41 17 70.5t45.5 43.5t55 20t55.5 6h71v28q0 47 -18.5 64.5t-65.5 17.5q-20 0 -48.5 -6t-47.5 -12l-19 -7v74q53 25 129 25q78 0 117 -37.5t39 -134.5v-278zM395 0h-310v85h310v-85z
M309 379v93l-49 -1q-110 -3 -110 -77q0 -40 15 -56t45 -16q20 0 45 14t39 28z" />
    <glyph glyph-name="guillemotleft" unicode="&#xab;" horiz-adv-x="511" 
d="M451 134h-85l-111 173l111 173h85l-81 -173zM256 134h-85l-111 173l111 173h85l-81 -173z" />
    <glyph glyph-name="logicalnot" unicode="&#xac;" horiz-adv-x="700" 
d="M610 99h-90v191h-430v90h520v-281z" />
    <glyph glyph-name="uni00AD" unicode="&#xad;" horiz-adv-x="426" 
d="M346 295h-266v85h266v-85z" />
    <glyph glyph-name="registered" unicode="&#xae;" horiz-adv-x="810" 
d="M750 345q0 -163 -97 -259t-248 -96t-248 95t-97 260q0 162 97.5 258.5t247.5 96.5t247.5 -96.5t97.5 -258.5zM670 345q0 127 -74.5 203.5t-190.5 76.5t-190.5 -75.5t-74.5 -204.5q0 -128 74.5 -204t190.5 -76t190.5 76.5t74.5 203.5zM546 167h-90l-17 62q-17 64 -40 83
l-29 -2v-143h-77v370h92q31 0 54.5 -4t46.5 -15t35.5 -34t12.5 -58q0 -66 -65 -95q26 -23 47 -82zM456 426q0 32 -13.5 41.5t-56.5 9.5h-16v-112q52 3 69 16t17 45z" />
    <glyph glyph-name="macron" unicode="&#xaf;" horiz-adv-x="415" 
d="M345 650h-275v90h275v-90z" />
    <glyph glyph-name="degree" unicode="&#xb0;" horiz-adv-x="454" 
d="M394 535q0 -89 -49 -132t-118 -43t-118 41.5t-49 133.5q0 89 50.5 132t116.5 43q68 0 117.5 -42t49.5 -133zM314 535q0 116 -87 116t-87 -116q0 -114 87 -114t87 114z" />
    <glyph glyph-name="plusminus" unicode="&#xb1;" horiz-adv-x="630" 
d="M540 300h-180v-140h-90v140h-180v90h180v175h90v-175h180v-90zM540 0h-450v90h450v-90z" />
    <glyph glyph-name="twosuperior" unicode="&#xb2;" horiz-adv-x="348" 
d="M297 342l-8 -68h-230v63l106 129q57 69 57 117q0 36 -15.5 49.5t-49.5 13.5q-19 0 -43.5 -5t-39.5 -9l-14 -5v61q43 22 100 22q136 0 136 -123q0 -68 -86 -167l-69 -78h156z" />
    <glyph glyph-name="threesuperior" unicode="&#xb3;" horiz-adv-x="348" 
d="M298 405q0 -137 -146 -137q-21 0 -45 4t-37 8l-14 5v63q51 -17 92 -17q40 0 58 16.5t18 59.5q0 66 -85 66h-47v60h47q32 0 53.5 15.5t21.5 49.5q0 29 -14.5 39.5t-45.5 10.5q-18 0 -42.5 -4.5t-39.5 -9.5l-16 -4v60q51 20 102 20q50 0 90 -24t40 -86q0 -72 -67 -93
q77 -17 77 -102z" />
    <glyph glyph-name="acute" unicode="&#xb4;" horiz-adv-x="296" 
d="M256 770l-124 -150h-92l98 150h118z" />
    <glyph glyph-name="mu" unicode="&#xb5;" horiz-adv-x="590" 
d="M490 0h-73l-11 69l-8.5 -8.5t-22.5 -19t-34.5 -24t-44 -19t-51.5 -8.5q-16 0 -29.5 2t-19.5 4l-6 2v-188h-90v720h90v-355q0 -56 14.5 -80t57.5 -24q31 0 65.5 14t53.5 28l19 14v403h90v-530z" />
    <glyph glyph-name="paragraph" unicode="&#xb6;" horiz-adv-x="630" 
d="M530 0h-80v700h80v-700zM370 0h-80v224q-124 9 -187 60.5t-63 175.5q0 135 69 187.5t201 52.5h60v-700zM290 294v328q-44 -1 -70.5 -6.5t-48.5 -22.5t-31.5 -49t-9.5 -84q0 -91 36.5 -124.5t123.5 -41.5z" />
    <glyph glyph-name="periodcentered" unicode="&#xb7;" horiz-adv-x="361" 
d="M261 338q0 -34 -23 -58.5t-57 -24.5t-57.5 24.5t-23.5 58.5t23.5 58t57.5 24t57 -24t23 -58z" />
    <glyph glyph-name="cedilla" unicode="&#xb8;" horiz-adv-x="324" 
d="M244 -90q0 -100 -116 -100q-19 0 -41 5t-35 11l-12 5v72q46 -20 79 -20q43 0 43 45q0 17 -3.5 37.5t-6.5 32.5l-4 12h52l12.5 -13t19.5 -34.5t12 -52.5z" />
    <glyph glyph-name="onesuperior" unicode="&#xb9;" horiz-adv-x="348" 
d="M230 270h-74v348l-96 -42v66l116 58h54v-430z" />
    <glyph glyph-name="ordmasculine" unicode="&#xba;" horiz-adv-x="504" 
d="M444 480q0 -231 -192 -231t-192 231q0 70 17.5 118t48.5 71t61 32t65 9t65 -9t61 -32t48.5 -71t17.5 -118zM429 0h-354v85h354v-85zM356 480q0 93 -28 127.5t-76 34.5t-76 -35t-28 -127q0 -87 31.5 -124.5t72.5 -37.5q104 0 104 162z" />
    <glyph glyph-name="guillemotright" unicode="&#xbb;" horiz-adv-x="511" 
d="M451 307l-111 -173h-85l81 173l-81 173h85zM256 307l-111 -173h-85l81 173l-81 173h85z" />
    <glyph glyph-name="onequarter" unicode="&#xbc;" horiz-adv-x="896" 
d="M881 162l-8 -67h-64v-98h-74v98h-165v51l64 281h82l-74 -265h94l10 142h63v-142h72zM668 810l-360 -920h-80l360 920h80zM230 270h-74v348l-96 -42v66l116 58h54v-430z" />
    <glyph glyph-name="onehalf" unicode="&#xbd;" horiz-adv-x="896" 
d="M845 68l-8 -68h-230v63l106 129q57 69 57 117q0 36 -15.5 49.5t-49.5 13.5q-19 0 -43.5 -5t-39.5 -9l-14 -5v61q43 22 100 22q136 0 136 -123q0 -68 -86 -167l-69 -78h156zM668 810l-360 -920h-80l360 920h80zM230 270h-74v348l-96 -42v66l116 58h54v-430z" />
    <glyph glyph-name="threequarters" unicode="&#xbe;" horiz-adv-x="896" 
d="M881 165l-8 -67h-64v-98h-74v98h-165v51l64 281h82l-74 -265h94l10 142h63v-142h72zM668 810l-360 -920h-80l360 920h80zM298 405q0 -137 -146 -137q-21 0 -45 4t-37 8l-14 5v63q51 -17 92 -17q40 0 58 16.5t18 59.5q0 66 -85 66h-47v60h47q32 0 53.5 15.5t21.5 49.5
q0 29 -14.5 39.5t-45.5 10.5q-18 0 -42.5 -4.5t-39.5 -9.5l-16 -4v60q51 20 102 20q50 0 90 -24t40 -86q0 -72 -67 -93q77 -17 77 -102z" />
    <glyph glyph-name="questiondown" unicode="&#xbf;" horiz-adv-x="423" 
d="M309 467q0 -30 -20.5 -51t-50.5 -21t-50 21t-20 51t20 51.5t50 21.5t50.5 -21.5t20.5 -51.5zM363 -149q-61 -31 -132 -31q-161 0 -161 148q0 11 1.5 21.5t3 18.5t6 17.5t6.5 15t9 15t9 13t11 13l10.5 11l11.5 11.5l11 11q51 53 51 117q0 30 -5 58h84q4 -25 4 -53
q0 -41 -13.5 -76.5t-26.5 -52.5t-37 -42t-36 -45.5t-12 -50.5q0 -44 20.5 -58t62.5 -14q26 0 56.5 7t48.5 13l17 7v-74z" />
    <glyph glyph-name="Agrave" unicode="&#xc0;" horiz-adv-x="540" 
d="M315 750h-92l-124 120h126zM520 0h-98l-37 156h-230l-37 -156h-98l193 700h114zM368 234l-62 254l-36 155q-19 -87 -36 -155l-62 -254h196z" />
    <glyph glyph-name="Aacute" unicode="&#xc1;" horiz-adv-x="540" 
d="M438 870l-124 -120h-92l90 120h126zM520 0h-98l-37 156h-230l-37 -156h-98l193 700h114zM368 234l-62 254l-36 155q-19 -87 -36 -155l-62 -254h196z" />
    <glyph glyph-name="Acircumflex" unicode="&#xc2;" horiz-adv-x="540" 
d="M453 750h-112l-71 67l-71 -67h-112l138 120h90zM520 0h-98l-37 156h-230l-37 -156h-98l193 700h114zM368 234l-62 254l-36 155q-19 -87 -36 -155l-62 -254h196z" />
    <glyph glyph-name="Atilde" unicode="&#xc3;" horiz-adv-x="540" 
d="M420 780q-41 -26 -73 -26q-31 0 -77.5 18t-73.5 18q-30 0 -76 -30v90q48 28 87 28q35 0 81 -17t68 -17t64 25v-89zM520 0h-98l-37 156h-230l-37 -156h-98l193 700h114zM368 234l-62 254l-36 155q-19 -87 -36 -155l-62 -254h196z" />
    <glyph glyph-name="Adieresis" unicode="&#xc4;" horiz-adv-x="540" 
d="M443 800q0 -25 -17 -42.5t-42 -17.5t-42 17.5t-17 42.5t17 42.5t42 17.5t42 -17.5t17 -42.5zM215 800q0 -25 -17 -42.5t-42 -17.5t-42 17.5t-17 42.5t17 42.5t42 17.5t42 -17.5t17 -42.5zM520 0h-98l-37 156h-230l-37 -156h-98l193 700h114zM368 234l-62 254l-36 155
q-19 -87 -36 -155l-62 -254h196z" />
    <glyph glyph-name="Aring" unicode="&#xc5;" horiz-adv-x="540" 
d="M388 813q0 -52 -33.5 -77t-84.5 -25q-52 0 -85 24.5t-33 77.5q0 52 34 77t84 25q47 0 82.5 -25.5t35.5 -76.5zM520 0h-98l-37 156h-230l-37 -156h-98l193 700h114zM323 813q0 48 -53 48t-53 -48t53 -48t53 48zM368 234l-62 254l-36 155q-19 -87 -36 -155l-62 -254h196z
" />
    <glyph glyph-name="AE" unicode="&#xc6;" horiz-adv-x="690" 
d="M650 0h-310v156h-171l-53 -156h-106l272 700h368v-84h-220v-196h200v-78h-200v-258h220v-84zM340 234v417q-31 -99 -57 -172l-87 -245h144z" />
    <glyph glyph-name="Ccedilla" unicode="&#xc7;" horiz-adv-x="470" 
d="M420 10q-50 -16 -104 -19q28 -39 28 -81q0 -100 -116 -100q-19 0 -41 5t-35 11l-12 5v72q46 -20 79 -20q43 0 43 45q0 29 -9 65q-183 27 -183 357q0 360 240 360q27 0 54.5 -5t41.5 -11l14 -5v-76q-60 20 -112 20q-24 0 -42.5 -5.5t-39.5 -23t-34.5 -47t-22.5 -82.5
t-9 -125q0 -158 37 -219.5t101 -61.5q23 0 53.5 5.5t49.5 10.5l19 5v-80z" />
    <glyph glyph-name="Egrave" unicode="&#xc8;" horiz-adv-x="490" 
d="M336 750h-92l-124 120h126zM440 0h-340v700h340v-84h-250v-196h230v-78h-230v-258h250v-84z" />
    <glyph glyph-name="Eacute" unicode="&#xc9;" horiz-adv-x="490" 
d="M426 870l-124 -120h-92l90 120h126zM440 0h-340v700h340v-84h-250v-196h230v-78h-230v-258h250v-84z" />
    <glyph glyph-name="Ecircumflex" unicode="&#xca;" horiz-adv-x="490" 
d="M446 750h-112l-71 67l-71 -67h-112l138 120h90zM440 0h-340v700h340v-84h-250v-196h230v-78h-230v-258h250v-84z" />
    <glyph glyph-name="Edieresis" unicode="&#xcb;" horiz-adv-x="490" 
d="M447 800q0 -25 -17 -42.5t-42 -17.5t-42 17.5t-17 42.5t17 42.5t42 17.5t42 -17.5t17 -42.5zM218 800q0 -25 -17 -42.5t-42 -17.5t-42 17.5t-17 42.5t17 42.5t42 17.5t42 -17.5t17 -42.5zM440 0h-340v700h340v-84h-250v-196h230v-78h-230v-258h250v-84z" />
    <glyph glyph-name="Igrave" unicode="&#xcc;" horiz-adv-x="292" 
d="M193 750h-92l-124 120h126zM192 0h-92v700h92v-700z" />
    <glyph glyph-name="Iacute" unicode="&#xcd;" horiz-adv-x="292" 
d="M315 870l-124 -120h-92l90 120h126zM192 0h-92v700h92v-700z" />
    <glyph glyph-name="Icircumflex" unicode="&#xce;" horiz-adv-x="292" 
d="M329 750h-112l-71 67l-71 -67h-112l138 120h90zM192 0h-92v700h92v-700z" />
    <glyph glyph-name="Idieresis" unicode="&#xcf;" horiz-adv-x="292" 
d="M299 800q0 -25 -17 -42.5t-42 -17.5t-42 17.5t-17 42.5t17 42.5t42 17.5t42 -17.5t17 -42.5zM111 800q0 -25 -17 -42.5t-42 -17.5t-42 17.5t-17 42.5t17 42.5t42 17.5t42 -17.5t17 -42.5zM192 0h-92v700h92v-700z" />
    <glyph glyph-name="Eth" unicode="&#xd0;" horiz-adv-x="600" 
d="M530 350q0 -75 -10.5 -132.5t-31.5 -95.5t-46.5 -62.5t-63.5 -37.5t-75 -17.5t-86 -4.5h-107v332h-80v78h80v290h117q59 0 100.5 -6.5t82.5 -27.5t65.5 -58.5t39.5 -102t15 -155.5zM440 350q0 73 -10 123.5t-25 79t-42.5 44t-54 20t-67.5 4.5h-41v-211h120v-78h-120v-253
h33q43 0 71.5 5t56 21t44 45.5t26 79t9.5 120.5z" />
    <glyph glyph-name="Ntilde" unicode="&#xd1;" horiz-adv-x="620" 
d="M460 780q-41 -26 -73 -26q-31 0 -77.5 18t-73.5 18q-30 0 -76 -30v90q48 28 87 28q35 0 81 -17t68 -17t64 25v-89zM520 0h-79l-185 381q-20 41 -40 88t-30 73l-10 27q14 -135 14 -210v-359h-90v700h89l176 -366q25 -52 45 -101t28 -72l7 -23q-15 141 -15 218v344h90v-700
z" />
    <glyph glyph-name="Ograve" unicode="&#xd2;" horiz-adv-x="570" 
d="M344 750h-92l-124 120h126zM510 350q0 -98 -15.5 -168t-37.5 -106.5t-55.5 -56.5t-58.5 -24.5t-58 -4.5q-27 0 -48 3.5t-49 14.5t-49 35.5t-40 62.5t-29 100.5t-10 143.5t10.5 143.5t30 100.5t41 62.5t49.5 35.5t48.5 14.5t45.5 3.5q30 0 55 -4.5t58.5 -25.5t56 -57.5
t39 -106.5t16.5 -166zM420 350q0 289 -135 289q-29 0 -51 -12t-42 -42t-31 -89.5t-11 -145.5q0 -289 135 -289t135 289z" />
    <glyph glyph-name="Oacute" unicode="&#xd3;" horiz-adv-x="570" 
d="M436 870l-124 -120h-92l90 120h126zM510 350q0 -98 -15.5 -168t-37.5 -106.5t-55.5 -56.5t-58.5 -24.5t-58 -4.5q-27 0 -48 3.5t-49 14.5t-49 35.5t-40 62.5t-29 100.5t-10 143.5t10.5 143.5t30 100.5t41 62.5t49.5 35.5t48.5 14.5t45.5 3.5q30 0 55 -4.5t58.5 -25.5
t56 -57.5t39 -106.5t16.5 -166zM420 350q0 289 -135 289q-29 0 -51 -12t-42 -42t-31 -89.5t-11 -145.5q0 -289 135 -289t135 289z" />
    <glyph glyph-name="Ocircumflex" unicode="&#xd4;" horiz-adv-x="570" 
d="M468 750h-112l-71 67l-71 -67h-112l138 120h90zM510 350q0 -98 -15.5 -168t-37.5 -106.5t-55.5 -56.5t-58.5 -24.5t-58 -4.5q-27 0 -48 3.5t-49 14.5t-49 35.5t-40 62.5t-29 100.5t-10 143.5t10.5 143.5t30 100.5t41 62.5t49.5 35.5t48.5 14.5t45.5 3.5q30 0 55 -4.5
t58.5 -25.5t56 -57.5t39 -106.5t16.5 -166zM420 350q0 289 -135 289q-29 0 -51 -12t-42 -42t-31 -89.5t-11 -145.5q0 -289 135 -289t135 289z" />
    <glyph glyph-name="Otilde" unicode="&#xd5;" horiz-adv-x="570" 
d="M435 780q-41 -26 -73 -26q-31 0 -77.5 18t-73.5 18q-29 0 -76 -30v90q48 28 87 28q35 0 81 -17t68 -17t64 25v-89zM510 350q0 -98 -15.5 -168t-37.5 -106.5t-55.5 -56.5t-58.5 -24.5t-58 -4.5q-27 0 -48 3.5t-49 14.5t-49 35.5t-40 62.5t-29 100.5t-10 143.5t10.5 143.5
t30 100.5t41 62.5t49.5 35.5t48.5 14.5t45.5 3.5q30 0 55 -4.5t58.5 -25.5t56 -57.5t39 -106.5t16.5 -166zM420 350q0 289 -135 289q-29 0 -51 -12t-42 -42t-31 -89.5t-11 -145.5q0 -289 135 -289t135 289z" />
    <glyph glyph-name="Odieresis" unicode="&#xd6;" horiz-adv-x="570" 
d="M459 800q0 -25 -17 -42.5t-42 -17.5t-42 17.5t-17 42.5t17 42.5t42 17.5t42 -17.5t17 -42.5zM230 800q0 -25 -17 -42.5t-42 -17.5t-42 17.5t-17 42.5t17 42.5t42 17.5t42 -17.5t17 -42.5zM510 350q0 -98 -15.5 -168t-37.5 -106.5t-55.5 -56.5t-58.5 -24.5t-58 -4.5
q-27 0 -48 3.5t-49 14.5t-49 35.5t-40 62.5t-29 100.5t-10 143.5t10.5 143.5t30 100.5t41 62.5t49.5 35.5t48.5 14.5t45.5 3.5q30 0 55 -4.5t58.5 -25.5t56 -57.5t39 -106.5t16.5 -166zM420 350q0 289 -135 289q-29 0 -51 -12t-42 -42t-31 -89.5t-11 -145.5q0 -289 135 -289
t135 289z" />
    <glyph glyph-name="multiply" unicode="&#xd7;" horiz-adv-x="590" 
d="M500 194l-64 -64l-141 141l-134 -134l-64 64l134 134l-141 141l64 64l141 -141l134 134l64 -64l-134 -134z" />
    <glyph glyph-name="Oslash" unicode="&#xd8;" horiz-adv-x="570" 
d="M510 350q0 -98 -15.5 -168t-37.5 -106.5t-55.5 -56.5t-58.5 -24.5t-58 -4.5q-62 0 -103 21l-50 -121h-72l68 166q-68 85 -68 294q0 81 10.5 143.5t30 100.5t41 62.5t49.5 35.5t48.5 14.5t45.5 3.5q62 0 103 -23l50 123h72l-69 -169q69 -88 69 -291zM357 612
q-28 28 -72 28q-23 0 -41.5 -7t-36.5 -26.5t-30 -51t-19.5 -84t-7.5 -121.5q0 -119 22 -187zM420 350q0 118 -22 187l-184 -448q29 -29 71 -29q135 0 135 290z" />
    <glyph glyph-name="Ugrave" unicode="&#xd9;" horiz-adv-x="596" 
d="M351 750h-92l-124 120h126zM501 190q0 -102 -50 -151t-153 -49q-107 0 -155 47t-48 153v510h90v-525q0 -58 27 -83t86 -25q113 0 113 108v525h90v-510z" />
    <glyph glyph-name="Uacute" unicode="&#xda;" horiz-adv-x="596" 
d="M456 870l-124 -120h-92l90 120h126zM501 190q0 -102 -50 -151t-153 -49q-107 0 -155 47t-48 153v510h90v-525q0 -58 27 -83t86 -25q113 0 113 108v525h90v-510z" />
    <glyph glyph-name="Ucircumflex" unicode="&#xdb;" horiz-adv-x="596" 
d="M481 750h-112l-71 67l-71 -67h-112l138 120h90zM501 190q0 -102 -50 -151t-153 -49q-107 0 -155 47t-48 153v510h90v-525q0 -58 27 -83t86 -25q113 0 113 108v525h90v-510z" />
    <glyph glyph-name="Udieresis" unicode="&#xdc;" horiz-adv-x="596" 
d="M472 800q0 -25 -17 -42.5t-42 -17.5t-42 17.5t-17 42.5t17 42.5t42 17.5t42 -17.5t17 -42.5zM243 800q0 -25 -17 -42.5t-42 -17.5t-42 17.5t-17 42.5t17 42.5t42 17.5t42 -17.5t17 -42.5zM501 190q0 -102 -50 -151t-153 -49q-107 0 -155 47t-48 153v510h90v-525
q0 -58 27 -83t86 -25q113 0 113 108v525h90v-510z" />
    <glyph glyph-name="Yacute" unicode="&#xdd;" horiz-adv-x="480" 
d="M399 870l-124 -120h-92l90 120h126zM480 700l-195 -407v-293h-90v293l-195 407h108l132 -340l132 340h108z" />
    <glyph glyph-name="Thorn" unicode="&#xde;" horiz-adv-x="530" 
d="M490 363q0 -133 -73.5 -187t-226.5 -54v-122h-90v700h90v-100h37q134 0 198.5 -49.5t64.5 -187.5zM400 360q0 46 -8.5 76.5t-21 47.5t-38 25.5t-48 10.5t-63.5 2h-31v-331q119 3 164.5 37.5t45.5 131.5z" />
    <glyph glyph-name="germandbls" unicode="&#xdf;" horiz-adv-x="594" 
d="M554 153q0 -92 -49 -127.5t-130 -35.5q-25 0 -54.5 5t-46.5 9l-16 5v79q73 -22 117 -22q91 0 91 87q0 18 -5.5 32t-21 26.5t-21 16l-26.5 16.5l-41 25q-23 14 -36.5 24.5t-26 33.5t-12.5 51q0 16 4 29.5t13 27t15 21t20 22l19 19.5q35 39 35 79q0 82 -89 82
q-56 0 -79.5 -28.5t-23.5 -104.5v-525h-90v525q0 108 44.5 156.5t145.5 48.5q87 0 134 -38.5t47 -110.5q0 -75 -64 -127l-15 -12t-14.5 -12t-10.5 -10.5t-8.5 -12.5t-2.5 -13q0 -6 2.5 -11.5t5 -9t9 -8.5t9.5 -7t12 -7.5t12 -7.5l45 -28q28 -18 47 -34t37.5 -50.5
t18.5 -77.5z" />
    <glyph glyph-name="agrave" unicode="&#xe0;" horiz-adv-x="540" 
d="M324 620h-92l-124 150h118zM445 0h-77l-10 62l-5.5 -8t-16.5 -17t-27.5 -21.5t-38.5 -17.5t-50 -8q-155 0 -155 166q0 170 203 170h87v58q0 50 -23.5 65t-76.5 15q-55 0 -145 -27v76q76 27 159 27q40 0 68.5 -6.5t54.5 -24t39.5 -53t13.5 -88.5v-368zM355 119v152l-65 -1
q-68 -1 -101.5 -23t-33.5 -83t22.5 -81t62.5 -20q27 0 56 14t44 28z" />
    <glyph glyph-name="aacute" unicode="&#xe1;" horiz-adv-x="540" 
d="M426 770l-124 -150h-92l98 150h118zM445 0h-77l-10 62l-5.5 -8t-16.5 -17t-27.5 -21.5t-38.5 -17.5t-50 -8q-155 0 -155 166q0 170 203 170h87v58q0 50 -23.5 65t-76.5 15q-55 0 -145 -27v76q76 27 159 27q40 0 68.5 -6.5t54.5 -24t39.5 -53t13.5 -88.5v-368zM355 119
v152l-65 -1q-68 -1 -101.5 -23t-33.5 -83t22.5 -81t62.5 -20q27 0 56 14t44 28z" />
    <glyph glyph-name="acircumflex" unicode="&#xe2;" horiz-adv-x="540" 
d="M443 620h-112l-71 92l-71 -92h-112l138 150h90zM445 0h-77l-10 62l-5.5 -8t-16.5 -17t-27.5 -21.5t-38.5 -17.5t-50 -8q-155 0 -155 166q0 170 203 170h87v58q0 50 -23.5 65t-76.5 15q-55 0 -145 -27v76q76 27 159 27q40 0 68.5 -6.5t54.5 -24t39.5 -53t13.5 -88.5v-368z
M355 119v152l-65 -1q-68 -1 -101.5 -23t-33.5 -83t22.5 -81t62.5 -20q27 0 56 14t44 28z" />
    <glyph glyph-name="atilde" unicode="&#xe3;" horiz-adv-x="540" 
d="M410 650q-41 -26 -73 -26q-35 0 -74 26q-45 30 -77 30q-30 0 -76 -30v90q48 28 87 28t83 -28q41 -26 66 -26q22 0 64 25v-89zM445 0h-77l-10 62l-5.5 -8t-16.5 -17t-27.5 -21.5t-38.5 -17.5t-50 -8q-155 0 -155 166q0 170 203 170h87v58q0 50 -23.5 65t-76.5 15
q-55 0 -145 -27v76q76 27 159 27q40 0 68.5 -6.5t54.5 -24t39.5 -53t13.5 -88.5v-368zM355 119v152l-65 -1q-68 -1 -101.5 -23t-33.5 -83t22.5 -81t62.5 -20q27 0 56 14t44 28z" />
    <glyph glyph-name="adieresis" unicode="&#xe4;" horiz-adv-x="540" 
d="M434 670q0 -25 -17 -42.5t-42 -17.5t-42 17.5t-17 42.5t17 42.5t42 17.5t42 -17.5t17 -42.5zM205 670q0 -25 -17 -42.5t-42 -17.5t-42 17.5t-17 42.5t17 42.5t42 17.5t42 -17.5t17 -42.5zM445 0h-77l-10 62l-5.5 -8t-16.5 -17t-27.5 -21.5t-38.5 -17.5t-50 -8
q-155 0 -155 166q0 170 203 170h87v58q0 50 -23.5 65t-76.5 15q-55 0 -145 -27v76q76 27 159 27q40 0 68.5 -6.5t54.5 -24t39.5 -53t13.5 -88.5v-368zM355 119v152l-65 -1q-68 -1 -101.5 -23t-33.5 -83t22.5 -81t62.5 -20q27 0 56 14t44 28z" />
    <glyph glyph-name="aring" unicode="&#xe5;" horiz-adv-x="540" 
d="M386 683q0 -54 -33 -83t-85 -29t-85 28.5t-33 83.5q0 54 33.5 83t84.5 29q48 0 83 -29.5t35 -82.5zM445 0h-77l-10 62l-5.5 -8t-16.5 -17t-27.5 -21.5t-38.5 -17.5t-50 -8q-155 0 -155 166q0 170 203 170h87v58q0 50 -23.5 65t-76.5 15q-55 0 -145 -27v76q76 27 159 27
q40 0 68.5 -6.5t54.5 -24t39.5 -53t13.5 -88.5v-368zM321 683q0 28 -15.5 43t-37.5 15q-24 0 -38.5 -14.5t-14.5 -43.5t15 -43.5t38 -14.5q22 0 37.5 14.5t15.5 43.5zM355 119v152l-65 -1q-68 -1 -101.5 -23t-33.5 -83t22.5 -81t62.5 -20q27 0 56 14t44 28z" />
    <glyph glyph-name="ae" unicode="&#xe6;" horiz-adv-x="810" 
d="M745 265l-1 -28h-300q1 -49 11.5 -82.5t22.5 -50t34 -25t34 -9.5t34 -1q23 0 57 6.5t57 12.5l23 7v-80q-69 -25 -137 -25q-137 0 -186 90q-60 -90 -164 -90q-33 0 -58.5 6t-51.5 22t-40.5 51t-14.5 87q0 170 203 170h87v58q0 50 -23.5 65t-76.5 15q-55 0 -145 -27v76
q76 27 159 27q113 0 144 -65q44 65 142 65q199 0 190 -275zM656 299q0 103 -26.5 138t-74.5 35q-53 0 -80 -36.5t-30 -136.5h211zM355 159v112l-65 -1q-68 -1 -101.5 -23t-33.5 -83t22.5 -81t62.5 -20q45 0 80 28.5t35 67.5z" />
    <glyph glyph-name="ccedilla" unicode="&#xe7;" horiz-adv-x="450" 
d="M400 10q-45 -18 -94 -19q28 -42 28 -81q0 -100 -116 -100q-19 0 -41 5t-35 11l-12 5v72q46 -20 79 -20q43 0 43 45q0 29 -9 65q-173 26 -173 269q0 72 16.5 125.5t40.5 81.5t57.5 45t59 21.5t54.5 4.5q25 0 50.5 -5t38.5 -9l13 -5v-77q-50 19 -99 19q-29 0 -50 -6
t-44 -24.5t-35 -61.5t-12 -109q0 -60 11.5 -100.5t32.5 -59.5t41.5 -25.5t47.5 -6.5q21 0 48 5t43 11l16 5v-81z" />
    <glyph glyph-name="egrave" unicode="&#xe8;" horiz-adv-x="525" 
d="M321 620h-92l-124 150h118zM460 265l-1 -28h-300q1 -49 11.5 -82.5t22.5 -50t34 -25t34 -9.5t34 -1q23 0 57 6.5t57 12.5l23 7v-80q-69 -25 -137 -25q-37 0 -64 4t-59.5 20t-53 44t-34.5 81t-14 126q0 275 200 275q31 0 56.5 -6t52.5 -24t45 -47t28 -79.5t8 -118.5z
M371 299q0 103 -26.5 138t-74.5 35q-53 0 -80 -36.5t-30 -136.5h211z" />
    <glyph glyph-name="eacute" unicode="&#xe9;" horiz-adv-x="525" 
d="M429 770l-124 -150h-92l98 150h118zM460 265l-1 -28h-300q1 -49 11.5 -82.5t22.5 -50t34 -25t34 -9.5t34 -1q23 0 57 6.5t57 12.5l23 7v-80q-69 -25 -137 -25q-37 0 -64 4t-59.5 20t-53 44t-34.5 81t-14 126q0 275 200 275q31 0 56.5 -6t52.5 -24t45 -47t28 -79.5
t8 -118.5zM371 299q0 103 -26.5 138t-74.5 35q-53 0 -80 -36.5t-30 -136.5h211z" />
    <glyph glyph-name="ecircumflex" unicode="&#xea;" horiz-adv-x="525" 
d="M446 620h-112l-71 92l-71 -92h-112l138 150h90zM460 265l-1 -28h-300q1 -49 11.5 -82.5t22.5 -50t34 -25t34 -9.5t34 -1q23 0 57 6.5t57 12.5l23 7v-80q-69 -25 -137 -25q-37 0 -64 4t-59.5 20t-53 44t-34.5 81t-14 126q0 275 200 275q31 0 56.5 -6t52.5 -24t45 -47
t28 -79.5t8 -118.5zM371 299q0 103 -26.5 138t-74.5 35q-53 0 -80 -36.5t-30 -136.5h211z" />
    <glyph glyph-name="edieresis" unicode="&#xeb;" horiz-adv-x="525" 
d="M436 670q0 -25 -17 -42.5t-42 -17.5t-42 17.5t-17 42.5t17 42.5t42 17.5t42 -17.5t17 -42.5zM208 670q0 -25 -17 -42.5t-42 -17.5t-42 17.5t-17 42.5t17 42.5t42 17.5t42 -17.5t17 -42.5zM460 265l-1 -28h-300q1 -49 11.5 -82.5t22.5 -50t34 -25t34 -9.5t34 -1
q23 0 57 6.5t57 12.5l23 7v-80q-69 -25 -137 -25q-37 0 -64 4t-59.5 20t-53 44t-34.5 81t-14 126q0 275 200 275q31 0 56.5 -6t52.5 -24t45 -47t28 -79.5t8 -118.5zM371 299q0 103 -26.5 138t-74.5 35q-53 0 -80 -36.5t-30 -136.5h211z" />
    <glyph glyph-name="igrave" unicode="&#xec;" horiz-adv-x="290" 
d="M192 620h-92l-124 150h118zM190 0h-90v530h90v-530z" />
    <glyph glyph-name="iacute" unicode="&#xed;" horiz-adv-x="290" 
d="M316 770l-124 -150h-92l98 150h118zM190 0h-90v530h90v-530z" />
    <glyph glyph-name="icircumflex" unicode="&#xee;" horiz-adv-x="290" 
d="M328 620h-112l-71 92l-71 -92h-112l138 150h90zM190 0h-90v530h90v-530z" />
    <glyph glyph-name="idieresis" unicode="&#xef;" horiz-adv-x="290" 
d="M298 670q0 -25 -17 -42.5t-42 -17.5t-42 17.5t-17 42.5t17 42.5t42 17.5t42 -17.5t17 -42.5zM110 670q0 -25 -17 -42.5t-42 -17.5t-42 17.5t-17 42.5t17 42.5t42 17.5t42 -17.5t17 -42.5zM190 0h-90v530h90v-530z" />
    <glyph glyph-name="eth" unicode="&#xf0;" 
d="M490 280q0 -290 -215 -290q-37 0 -70 9t-68 32.5t-56 75t-21 126.5q0 60 17 104t47 67.5t65 34.5t76 11q29 0 61.5 -11.5t50.5 -22.5l18 -12q-18 88 -59 140l-111 -74v92l52 35q-60 38 -165 49v74q145 -7 235 -77l113 75v-92l-58 -38q88 -113 88 -308zM400 270l-3 74
q-60 37 -122 37q-68 0 -96.5 -35t-28.5 -113q0 -55 10 -91.5t29.5 -53.5t39 -23t46.5 -6q57 0 91 45t34 166z" />
    <glyph glyph-name="ntilde" unicode="&#xf1;" horiz-adv-x="605" 
d="M453 650q-41 -26 -73 -26q-35 0 -74 26q-45 30 -77 30q-29 0 -76 -30v90q48 28 87 28t83 -28q41 -26 66 -26q22 0 64 25v-89zM510 0h-90v386q0 25 -7 41t-21.5 22.5t-26 8t-30.5 1.5q-32 0 -68.5 -13.5t-56.5 -26.5l-20 -13v-406h-90v530h67l20 -65q3 3 9 8t24.5 18
t37.5 23t46.5 18t53.5 8q72 0 112 -36t40 -122v-382z" />
    <glyph glyph-name="ograve" unicode="&#xf2;" horiz-adv-x="554" 
d="M326 620h-92l-124 150h118zM494 265q0 -71 -14 -123t-34.5 -80.5t-51.5 -45.5t-57.5 -21.5t-59.5 -4.5t-59.5 5t-57.5 22t-51.5 46t-34.5 80.5t-14 121.5q0 275 217 275q32 0 59 -5t57.5 -22t51.5 -45.5t35 -80.5t14 -122zM404 265q0 56 -8.5 96t-20 61t-30.5 32.5
t-33.5 14t-34.5 2.5t-34.5 -3t-33.5 -14.5t-30.5 -32.5t-20 -61t-8.5 -95q0 -54 9.5 -94t22 -61t31.5 -33t33 -14.5t31 -2.5q127 0 127 205z" />
    <glyph glyph-name="oacute" unicode="&#xf3;" horiz-adv-x="554" 
d="M441 770l-124 -150h-92l98 150h118zM494 265q0 -71 -14 -123t-34.5 -80.5t-51.5 -45.5t-57.5 -21.5t-59.5 -4.5t-59.5 5t-57.5 22t-51.5 46t-34.5 80.5t-14 121.5q0 275 217 275q32 0 59 -5t57.5 -22t51.5 -45.5t35 -80.5t14 -122zM404 265q0 56 -8.5 96t-20 61
t-30.5 32.5t-33.5 14t-34.5 2.5t-34.5 -3t-33.5 -14.5t-30.5 -32.5t-20 -61t-8.5 -95q0 -54 9.5 -94t22 -61t31.5 -33t33 -14.5t31 -2.5q127 0 127 205z" />
    <glyph glyph-name="ocircumflex" unicode="&#xf4;" horiz-adv-x="554" 
d="M460 620h-112l-71 92l-71 -92h-112l138 150h90zM494 265q0 -71 -14 -123t-34.5 -80.5t-51.5 -45.5t-57.5 -21.5t-59.5 -4.5t-59.5 5t-57.5 22t-51.5 46t-34.5 80.5t-14 121.5q0 275 217 275q32 0 59 -5t57.5 -22t51.5 -45.5t35 -80.5t14 -122zM404 265q0 56 -8.5 96
t-20 61t-30.5 32.5t-33.5 14t-34.5 2.5t-34.5 -3t-33.5 -14.5t-30.5 -32.5t-20 -61t-8.5 -95q0 -54 9.5 -94t22 -61t31.5 -33t33 -14.5t31 -2.5q127 0 127 205z" />
    <glyph glyph-name="otilde" unicode="&#xf5;" horiz-adv-x="554" 
d="M427 650q-41 -26 -73 -26q-35 0 -74 26q-45 30 -77 30q-29 0 -76 -30v90q48 28 87 28t83 -28q41 -26 66 -26q22 0 64 25v-89zM494 265q0 -71 -14 -123t-34.5 -80.5t-51.5 -45.5t-57.5 -21.5t-59.5 -4.5t-59.5 5t-57.5 22t-51.5 46t-34.5 80.5t-14 121.5q0 275 217 275
q32 0 59 -5t57.5 -22t51.5 -45.5t35 -80.5t14 -122zM404 265q0 56 -8.5 96t-20 61t-30.5 32.5t-33.5 14t-34.5 2.5t-34.5 -3t-33.5 -14.5t-30.5 -32.5t-20 -61t-8.5 -95q0 -54 9.5 -94t22 -61t31.5 -33t33 -14.5t31 -2.5q127 0 127 205z" />
    <glyph glyph-name="odieresis" unicode="&#xf6;" horiz-adv-x="554" 
d="M451 670q0 -25 -17 -42.5t-42 -17.5t-42 17.5t-17 42.5t17 42.5t42 17.5t42 -17.5t17 -42.5zM222 670q0 -25 -17 -42.5t-42 -17.5t-42 17.5t-17 42.5t17 42.5t42 17.5t42 -17.5t17 -42.5zM494 265q0 -71 -14 -123t-34.5 -80.5t-51.5 -45.5t-57.5 -21.5t-59.5 -4.5
t-59.5 5t-57.5 22t-51.5 46t-34.5 80.5t-14 121.5q0 275 217 275q32 0 59 -5t57.5 -22t51.5 -45.5t35 -80.5t14 -122zM404 265q0 56 -8.5 96t-20 61t-30.5 32.5t-33.5 14t-34.5 2.5t-34.5 -3t-33.5 -14.5t-30.5 -32.5t-20 -61t-8.5 -95q0 -54 9.5 -94t22 -61t31.5 -33
t33 -14.5t31 -2.5q127 0 127 205z" />
    <glyph glyph-name="divide" unicode="&#xf7;" horiz-adv-x="631" 
d="M386 538q0 -30 -20 -51.5t-50 -21.5t-50.5 21.5t-20.5 51.5t20.5 51t50.5 21t50 -21t20 -51zM541 290h-451v90h451v-90zM386 133q0 -30 -20 -51.5t-50 -21.5t-50.5 21.5t-20.5 51.5t20.5 51t50.5 21t50 -21t20 -51z" />
    <glyph glyph-name="oslash" unicode="&#xf8;" horiz-adv-x="554" 
d="M494 265q0 -71 -14 -123t-34.5 -80.5t-51.5 -45.5t-57.5 -21.5t-59.5 -4.5q-52 0 -90 14l-55 -114h-72l71 148q-71 66 -71 227q0 275 217 275q52 0 90 -14l55 114h72l-71 -148q71 -68 71 -227zM404 265q0 91 -22 143l-162 -335q24 -13 57 -13q127 0 127 205zM335 460
q-23 11 -58 11q-20 0 -34.5 -3t-33.5 -14.5t-30.5 -32.5t-20 -61t-8.5 -95q0 -89 24 -140z" />
    <glyph glyph-name="ugrave" unicode="&#xf9;" horiz-adv-x="585" 
d="M346 620h-92l-124 150h118zM485 0h-73l-11 69q-8 -9 -22.5 -22t-56.5 -35t-82 -22q-145 0 -145 155v385h90v-365q0 -50 16 -72t59 -22q29 0 62.5 14t53.5 28l19 14v403h90v-530z" />
    <glyph glyph-name="uacute" unicode="&#xfa;" horiz-adv-x="585" 
d="M456 770l-124 -150h-92l98 150h118zM485 0h-73l-11 69q-8 -9 -22.5 -22t-56.5 -35t-82 -22q-145 0 -145 155v385h90v-365q0 -50 16 -72t59 -22q29 0 62.5 14t53.5 28l19 14v403h90v-530z" />
    <glyph glyph-name="ucircumflex" unicode="&#xfb;" horiz-adv-x="585" 
d="M476 620h-112l-71 92l-71 -92h-112l138 150h90zM485 0h-73l-11 69q-8 -9 -22.5 -22t-56.5 -35t-82 -22q-145 0 -145 155v385h90v-365q0 -50 16 -72t59 -22q29 0 62.5 14t53.5 28l19 14v403h90v-530z" />
    <glyph glyph-name="udieresis" unicode="&#xfc;" horiz-adv-x="585" 
d="M466 670q0 -25 -17 -42.5t-42 -17.5t-42 17.5t-17 42.5t17 42.5t42 17.5t42 -17.5t17 -42.5zM237 670q0 -25 -17 -42.5t-42 -17.5t-42 17.5t-17 42.5t17 42.5t42 17.5t42 -17.5t17 -42.5zM485 0h-73l-11 69q-8 -9 -22.5 -22t-56.5 -35t-82 -22q-145 0 -145 155v385h90
v-365q0 -50 16 -72t59 -22q29 0 62.5 14t53.5 28l19 14v403h90v-530z" />
    <glyph glyph-name="yacute" unicode="&#xfd;" horiz-adv-x="475" 
d="M416 770l-124 -150h-92l98 150h118zM460 530l-173 -590q-17 -59 -44.5 -91.5t-51.5 -40.5t-58 -8q-20 0 -43 4t-36 8l-13 3v74q62 -14 89 -14t45.5 21t31.5 78l6 27l-198 529h108l131 -429l104 429h102z" />
    <glyph glyph-name="thorn" unicode="&#xfe;" horiz-adv-x="580" 
d="M510 268q0 -72 -17 -126t-41 -82t-56.5 -45t-55 -21t-45.5 -4q-59 0 -105 29v-209h-90v910h90v-242q6 7 16.5 17.5t44.5 27.5t69 17q190 0 190 -272zM420 268q0 56 -8 95.5t-18.5 59t-29 30t-31 12t-33.5 1.5q-50 0 -110 -47v-337q56 -20 98 -20q132 0 132 206z" />
    <glyph glyph-name="ydieresis" unicode="&#xff;" horiz-adv-x="475" 
d="M411 670q0 -25 -17 -42.5t-42 -17.5t-42 17.5t-17 42.5t17 42.5t42 17.5t42 -17.5t17 -42.5zM182 670q0 -25 -17 -42.5t-42 -17.5t-42 17.5t-17 42.5t17 42.5t42 17.5t42 -17.5t17 -42.5zM460 530l-173 -590q-17 -59 -44.5 -91.5t-51.5 -40.5t-58 -8q-20 0 -43 4t-36 8
l-13 3v74q62 -14 89 -14t45.5 21t31.5 78l6 27l-198 529h108l131 -429l104 429h102z" />
    <glyph glyph-name="dotlessi" unicode="&#x131;" horiz-adv-x="290" 
d="M190 0h-90v530h90v-530z" />
    <glyph glyph-name="Lslash" unicode="&#x141;" horiz-adv-x="450" 
d="M410 84l-10 -84h-290v321l-80 -55v98l80 55v281h90v-218l120 83v-98l-120 -83v-300h210z" />
    <glyph glyph-name="lslash" unicode="&#x142;" horiz-adv-x="310" 
d="M280 439l-80 -55v-384h-90v321l-80 -55v98l80 55v301h90v-238l80 55v-98z" />
    <glyph glyph-name="OE" unicode="&#x152;" horiz-adv-x="720" 
d="M680 0h-315q-31 -10 -80 -10q-27 0 -48 3.5t-49 14.5t-49 35.5t-40 62.5t-29 100.5t-10 143.5t10.5 143.5t30 100.5t41 62.5t49.5 35.5t48.5 14.5t45.5 3.5q45 0 74 -10h321v-84h-220v-196h200v-78h-200v-258h220v-84zM370 80v538q-37 22 -85 22q-23 0 -41.5 -7
t-36.5 -26.5t-30 -51t-19.5 -84t-7.5 -121.5q0 -290 135 -290q15 0 36 5t35 10z" />
    <glyph glyph-name="oe" unicode="&#x153;" horiz-adv-x="859" 
d="M794 265l-1 -28h-300q1 -49 11.5 -82.5t22.5 -50t34 -25t34 -9.5t34 -1q23 0 57 6.5t57 12.5l23 7v-80q-69 -25 -137 -25q-61 0 -106.5 16t-74.5 66q-51 -82 -171 -82q-33 0 -59.5 5t-57.5 22t-51.5 46t-34.5 80.5t-14 121.5q0 275 217 275q120 0 171 -84q48 84 156 84
q31 0 56.5 -6t52.5 -24t45 -47t28 -79.5t8 -118.5zM705 299q0 103 -26.5 138t-74.5 35q-53 0 -80 -36.5t-30 -136.5h211zM404 265q0 56 -8.5 96t-20 61t-30.5 32.5t-33.5 14t-34.5 2.5t-34.5 -3t-33.5 -14.5t-30.5 -32.5t-20 -61t-8.5 -95q0 -54 9.5 -94t22 -61t31.5 -33
t33 -14.5t31 -2.5q127 0 127 205z" />
    <glyph glyph-name="Scaron" unicode="&#x160;" horiz-adv-x="460" 
d="M433 870l-138 -120h-90l-138 120h112l71 -72l71 72h112zM405 188q0 -60 -17 -101t-48.5 -61.5t-66 -28t-79.5 -7.5q-30 0 -63 5t-51 11l-18 5v82q78 -24 130 -24q57 0 90 24.5t33 87.5q0 43 -20.5 70t-60.5 54l-72 49q-107 73 -107 173q0 50 18.5 87.5t49 57.5t64.5 29
t71 9q32 0 62 -6t44 -12l14 -5v-79q-63 25 -120 25q-115 0 -115 -98q0 -35 20 -59.5t60 -52.5l56 -39q39 -27 62 -48t43.5 -60.5t20.5 -87.5z" />
    <glyph glyph-name="scaron" unicode="&#x161;" horiz-adv-x="434" 
d="M410 770l-138 -150h-90l-138 150h112l71 -92l71 92h112zM374 145q0 -47 -16 -79t-44.5 -48t-59 -22t-69.5 -6q-25 0 -54 5t-46 11l-17 5v80q75 -24 117 -24q103 0 103 78q0 21 -4.5 34.5t-16.5 23.5t-21 14l-30 13l-52 21q-104 43 -104 141q0 70 47.5 109t126.5 39
q31 0 61 -5t45 -11l14 -5v-75q-62 21 -117 21q-92 0 -92 -68q0 -16 5 -28.5t9 -19t17 -14t16 -8.5t18 -7l52 -21q52 -21 82 -54.5t30 -99.5z" />
    <glyph glyph-name="Ydieresis" unicode="&#x178;" horiz-adv-x="480" 
d="M414 800q0 -25 -17 -42.5t-42 -17.5t-42 17.5t-17 42.5t17 42.5t42 17.5t42 -17.5t17 -42.5zM185 800q0 -25 -17 -42.5t-42 -17.5t-42 17.5t-17 42.5t17 42.5t42 17.5t42 -17.5t17 -42.5zM480 700l-195 -407v-293h-90v293l-195 407h108l132 -340l132 340h108z" />
    <glyph glyph-name="Zcaron" unicode="&#x17d;" horiz-adv-x="445" 
d="M406 870l-138 -120h-90l-138 120h112l71 -72l71 72h112zM400 0h-350v71l252 545h-252v84h350v-71l-252 -545h252v-84z" />
    <glyph glyph-name="zcaron" unicode="&#x17e;" horiz-adv-x="440" 
d="M403 770l-138 -150h-90l-138 150h112l71 -92l71 92h112zM395 0h-345v65l240 388h-240v77h345v-65l-240 -388h240v-77z" />
    <glyph glyph-name="florin" unicode="&#x192;" horiz-adv-x="580" 
d="M569 702l-13 -67q-45 21 -94 21q-71 0 -88 -89l-7 -37h120l-22 -69h-110l-72 -410q-9 -53 -19 -86.5t-29 -66t-47 -50t-72 -28t-105 -10.5l12 73q88 8 120.5 39t48.5 121l73 418h-90l12 69h90l6 35q29 165 179 165q30 0 56.5 -7t38.5 -14z" />
    <glyph glyph-name="circumflex" unicode="&#x2c6;" horiz-adv-x="446" 
d="M406 620h-112l-71 92l-71 -92h-112l138 150h90z" />
    <glyph glyph-name="caron" unicode="&#x2c7;" horiz-adv-x="446" 
d="M406 770l-138 -150h-90l-138 150h112l71 -92l71 92h112z" />
    <glyph glyph-name="uni02C9" unicode="&#x2c9;" horiz-adv-x="415" 
d="M345 650h-275v90h275v-90z" />
    <glyph glyph-name="breve" unicode="&#x2d8;" horiz-adv-x="412" 
d="M372 770q0 -79 -45.5 -119.5t-120.5 -40.5q-74 0 -120 38t-46 122h85q0 -49 23.5 -72t57.5 -23q31 0 56 23t25 72h85z" />
    <glyph glyph-name="dotaccent" unicode="&#x2d9;" horiz-adv-x="261" 
d="M201 683q0 -30 -20 -51.5t-50 -21.5t-50.5 21.5t-20.5 51.5t20.5 51t50.5 21t50 -21t20 -51z" />
    <glyph glyph-name="ring" unicode="&#x2da;" horiz-adv-x="316" 
d="M276 683q0 -54 -33 -83t-85 -29t-85 28.5t-33 83.5q0 54 33.5 83t84.5 29q48 0 83 -29.5t35 -82.5zM211 683q0 28 -15.5 43t-37.5 15q-24 0 -38.5 -14.5t-14.5 -43.5t15 -43.5t38 -14.5q22 0 37.5 14.5t15.5 43.5z" />
    <glyph glyph-name="ogonek" unicode="&#x2db;" horiz-adv-x="324" 
d="M284 -169q-44 -21 -88 -21q-46 0 -81 21.5t-35 78.5q0 26 11 51t22 37l11 12h52q-14 -44 -14 -82q0 -45 43 -45q14 0 34 5t33 10l12 5v-72z" />
    <glyph glyph-name="tilde" unicode="&#x2dc;" horiz-adv-x="440" 
d="M370 650q-41 -26 -73 -26q-35 0 -74 26q-45 30 -77 30q-30 0 -76 -30v90q48 28 87 28t83 -28q41 -26 66 -26q22 0 64 25v-89z" />
    <glyph glyph-name="hungarumlaut" unicode="&#x2dd;" horiz-adv-x="434" 
d="M404 770l-94 -150h-72l58 150h108zM226 770l-94 -150h-72l58 150h108z" />
    <glyph glyph-name="uni03BC" unicode="&#x3bc;" horiz-adv-x="590" 
d="M490 0h-73l-11 69l-8.5 -8.5t-22.5 -19t-34.5 -24t-44 -19t-51.5 -8.5q-16 0 -29.5 2t-19.5 4l-6 2v-188h-90v720h90v-355q0 -56 14.5 -80t57.5 -24q31 0 65.5 14t53.5 28l19 14v403h90v-530z" />
    <glyph glyph-name="pi" unicode="&#x3c0;" horiz-adv-x="770" 
d="M730 530l-10 -85h-140v-325q0 -33 11 -43.5t39 -10.5q15 0 37.5 4.5t37.5 9.5l15 4v-74q-49 -20 -110 -20t-90.5 29.5t-29.5 103.5v322h-210v-445h-90v445h-150v85h690z" />
    <glyph glyph-name="endash" unicode="&#x2013;" horiz-adv-x="660" 
d="M570 295h-480v85h480v-85z" />
    <glyph glyph-name="emdash" unicode="&#x2014;" horiz-adv-x="760" 
d="M670 295h-580v85h580v-85z" />
    <glyph glyph-name="quoteleft" unicode="&#x2018;" horiz-adv-x="316" 
d="M216 700l-18 -275h-118l64 275h72z" />
    <glyph glyph-name="quoteright" unicode="&#x2019;" horiz-adv-x="316" 
d="M236 700l-64 -275h-72l18 275h118z" />
    <glyph glyph-name="quotesinglbase" unicode="&#x201a;" horiz-adv-x="316" 
d="M236 125l-64 -275h-72l18 275h118z" />
    <glyph glyph-name="quotedblleft" unicode="&#x201c;" horiz-adv-x="536" 
d="M436 700l-18 -275h-118l64 275h72zM216 700l-18 -275h-118l64 275h72z" />
    <glyph glyph-name="quotedblright" unicode="&#x201d;" horiz-adv-x="536" 
d="M456 700l-64 -275h-72l18 275h118zM236 700l-64 -275h-72l18 275h118z" />
    <glyph glyph-name="quotedblbase" unicode="&#x201e;" horiz-adv-x="536" 
d="M456 125l-64 -275h-72l18 275h118zM236 125l-64 -275h-72l18 275h118z" />
    <glyph glyph-name="dagger" unicode="&#x2020;" horiz-adv-x="570" 
d="M510 445h-180v-445h-90v445h-180v85h180v190h90v-190h180v-85z" />
    <glyph glyph-name="daggerdbl" unicode="&#x2021;" horiz-adv-x="570" 
d="M510 190h-180v-190h-90v190h-180v85h180v170h-180v85h180v190h90v-190h180v-85h-180v-170h180v-85z" />
    <glyph glyph-name="bullet" unicode="&#x2022;" horiz-adv-x="361" 
d="M261 338q0 -34 -23 -58.5t-57 -24.5t-57.5 24.5t-23.5 58.5t23.5 58t57.5 24t57 -24t23 -58z" />
    <glyph glyph-name="ellipsis" unicode="&#x2026;" horiz-adv-x="923" 
d="M823 63q0 -30 -20 -51.5t-50 -21.5t-50.5 21.5t-20.5 51.5t20.5 51t50.5 21t50 -21t20 -51zM532 63q0 -30 -20 -51.5t-50 -21.5t-50.5 21.5t-20.5 51.5t20.5 51t50.5 21t50 -21t20 -51zM241 63q0 -30 -20 -51.5t-50 -21.5t-50.5 21.5t-20.5 51.5t20.5 51t50.5 21t50 -21
t20 -51z" />
    <glyph glyph-name="perthousand" unicode="&#x2030;" horiz-adv-x="1297" 
d="M1237 175q0 -97 -48.5 -141t-118.5 -44q-32 0 -59.5 9t-53 28.5t-40 57.5t-14.5 90q0 96 50 140.5t117 44.5q68 0 117.5 -44.5t49.5 -140.5zM843 175q0 -97 -48.5 -141t-118.5 -44q-32 0 -59.5 9t-53 28.5t-40 57.5t-14.5 90q0 96 50 140.5t117 44.5q68 0 117.5 -44.5
t49.5 -140.5zM666 710l-340 -720h-88l340 720h88zM394 525q0 -97 -48.5 -141t-118.5 -44q-32 0 -59.5 9t-53 28.5t-40 57.5t-14.5 90q0 96 50 140.5t117 44.5q68 0 117.5 -44.5t49.5 -140.5zM1157 175q0 126 -87 126t-87 -126q0 -124 87 -124t87 124zM763 175q0 126 -87 126
t-87 -126q0 -124 87 -124t87 124zM314 525q0 126 -87 126t-87 -126q0 -124 87 -124t87 124z" />
    <glyph glyph-name="guilsinglleft" unicode="&#x2039;" horiz-adv-x="316" 
d="M256 134h-85l-111 173l111 173h85l-81 -173z" />
    <glyph glyph-name="guilsinglright" unicode="&#x203a;" horiz-adv-x="316" 
d="M256 307l-111 -173h-85l81 173l-81 173h85z" />
    <glyph glyph-name="fraction" unicode="&#x2044;" horiz-adv-x="200" 
d="M320 810l-360 -920h-80l360 920h80z" />
    <glyph glyph-name="uni2070" unicode="&#x2070;" horiz-adv-x="348" 
d="M316 489q0 -70 -11.5 -116t-33 -67.5t-44 -29.5t-53.5 -8q-29 0 -52 8.5t-44.5 31t-33.5 68.5t-12 113q0 69 12.5 115.5t34.5 68t44 29.5t51 8q28 0 50 -8t44.5 -29.5t35 -68t12.5 -115.5zM242 489q0 99 -17.5 130.5t-50.5 31.5q-16 0 -26 -4.5t-20.5 -19.5t-16 -49.5
t-5.5 -88.5t6 -89t17.5 -49.5t21.5 -19t23 -4.5t23 5t21.5 20t17.5 50t6 87z" />
    <glyph glyph-name="uni2074" unicode="&#x2074;" horiz-adv-x="348" 
d="M333 439l-8 -67h-64v-98h-74v98h-165v51l63 277h82l-73 -261h94l10 142h63v-142h72z" />
    <glyph glyph-name="uni2075" unicode="&#x2075;" horiz-adv-x="348" 
d="M300 414q0 -150 -152 -150q-21 0 -43.5 4t-34.5 8l-12 4v64q56 -19 92 -19q34 0 55 18.5t21 71.5q0 33 -10.5 50t-22 20.5t-30.5 3.5q-15 0 -32.5 -6t-28.5 -12l-10 -6l-37 10l6 225h228l-8 -68h-150l-4 -95q22 13 46 13q14 0 26.5 -1.5t32 -9.5t33.5 -21.5t24.5 -40
t10.5 -63.5z" />
    <glyph glyph-name="uni2076" unicode="&#x2076;" horiz-adv-x="348" 
d="M313 420q0 -47 -13.5 -79t-36.5 -47t-44 -20.5t-45 -5.5q-139 0 -139 192q0 113 42.5 181.5t128.5 68.5q17 0 36 -3.5t30 -6.5l10 -4v-62q-44 15 -77 15q-37 0 -61.5 -29.5t-31.5 -83.5q32 21 68 21q54 0 93.5 -30.5t39.5 -106.5zM239 420q0 46 -15 62.5t-50 16.5
q-15 0 -31 -4t-25 -8l-9 -4v-29q0 -77 18 -102.5t47 -25.5q19 0 31.5 5t23 27t10.5 62z" />
    <glyph glyph-name="uni2077" unicode="&#x2077;" horiz-adv-x="348" 
d="M304 645q-50 -75 -69.5 -112.5t-33 -101.5t-11.5 -157h-73q-3 134 22.5 206.5t90.5 151.5h-186v68h260v-55z" />
    <glyph glyph-name="uni2078" unicode="&#x2078;" horiz-adv-x="348" 
d="M318 393q0 -64 -41 -94.5t-103 -30.5q-144 0 -144 123q0 35 19 63t47 43q-55 30 -55 95q0 34 13 59t34 37t42 17t44 5q22 0 43 -5t42.5 -17t34.5 -37t13 -59q0 -62 -58 -93q69 -32 69 -106zM233 592q0 34 -14.5 46.5t-44.5 12.5q-32 0 -45.5 -13t-13.5 -46q0 -42 46 -59
l34 -12q38 30 38 71zM244 393q0 30 -15.5 44t-47.5 25l-37 13q-40 -34 -40 -82q0 -66 70 -66t70 66z" />
    <glyph glyph-name="uni2079" unicode="&#x2079;" horiz-adv-x="348" 
d="M314 498q0 -230 -175 -230q-17 0 -33 2t-23 4l-7 3v61q44 -9 62 -9q14 0 28.5 5t30.5 16.5t27 35.5t14 58q-29 -23 -71 -23q-63 0 -98 36.5t-35 102.5q0 64 36.5 107t101.5 43q43 0 72 -17t43.5 -48t20.5 -66t6 -81zM240 500q0 153 -65 153q-34 0 -50.5 -24t-16.5 -63
q0 -87 64 -87q17 0 34 5.5t26 10.5z" />
    <glyph glyph-name="uni2080" unicode="&#x2080;" horiz-adv-x="348" 
d="M316 116q0 -70 -11.5 -116t-33 -67.5t-44 -29.5t-53.5 -8q-29 0 -52 8.5t-44.5 31t-33.5 68.5t-12 113q0 69 12.5 115.5t34.5 68t44 29.5t51 8q28 0 50 -8t44.5 -29.5t35 -68t12.5 -115.5zM242 116q0 99 -17.5 130.5t-50.5 31.5q-16 0 -26 -4.5t-20.5 -19.5t-16 -49.5
t-5.5 -88.5t6 -89t17.5 -49.5t21.5 -19t23 -4.5t23 5t21.5 20t17.5 50t6 87z" />
    <glyph glyph-name="uni2081" unicode="&#x2081;" horiz-adv-x="348" 
d="M230 -95h-74v344l-96 -42v66l116 58h54v-426z" />
    <glyph glyph-name="uni2082" unicode="&#x2082;" horiz-adv-x="348" 
d="M297 -27l-8 -68h-230v63l106 129q19 23 28.5 36t19 34.5t9.5 42.5q0 36 -15.5 49.5t-49.5 13.5q-19 0 -43.5 -4.5t-39.5 -9.5l-14 -5v61q43 22 100 22q136 0 136 -123q0 -31 -17 -65.5t-30 -51t-39 -46.5l-69 -78h156z" />
    <glyph glyph-name="uni2083" unicode="&#x2083;" horiz-adv-x="348" 
d="M298 32q0 -137 -146 -137q-21 0 -45 4.5t-37 8.5l-14 4v63q51 -17 92 -17q40 0 58 16.5t18 59.5q0 66 -85 66h-47v60h47q32 0 53.5 15.5t21.5 49.5q0 29 -14.5 39.5t-45.5 10.5q-18 0 -42.5 -4.5t-39.5 -8.5l-16 -5v60q51 20 102 20q50 0 90 -24t40 -86q0 -72 -67 -93
q77 -17 77 -102z" />
    <glyph glyph-name="uni2084" unicode="&#x2084;" horiz-adv-x="348" 
d="M333 70l-8 -67h-64v-98h-74v98h-165v51l63 277h82l-73 -261h94l10 142h63v-142h72z" />
    <glyph glyph-name="uni2085" unicode="&#x2085;" horiz-adv-x="348" 
d="M300 45q0 -150 -152 -150q-21 0 -43.5 4t-34.5 8l-12 4v64q56 -19 92 -19q34 0 55 18.5t21 71.5q0 33 -10.5 50t-22 20.5t-30.5 3.5q-15 0 -32.5 -6t-28.5 -12l-10 -6l-37 10l6 225h228l-8 -68h-150l-4 -95q22 13 46 13q14 0 26.5 -1.5t32 -9.5t33.5 -21.5t24.5 -40
t10.5 -63.5z" />
    <glyph glyph-name="uni2086" unicode="&#x2086;" horiz-adv-x="348" 
d="M239 47q0 46 -15 62.5t-50 16.5q-15 0 -31 -4t-25 -8l-9 -4v-29q0 -77 18 -102.5t47 -25.5q19 0 31.5 5t23 27t10.5 62zM313 47q0 -47 -13.5 -79t-36.5 -47t-44 -20.5t-45 -5.5q-139 0 -139 192q0 113 42.5 181.5t128.5 68.5q17 0 36 -3.5t30 -7.5l10 -3v-62
q-44 15 -77 15q-37 0 -61.5 -29.5t-31.5 -83.5q32 21 68 21q54 0 93.5 -30.5t39.5 -106.5z" />
    <glyph glyph-name="uni2087" unicode="&#x2087;" horiz-adv-x="348" 
d="M304 276q-50 -75 -69.5 -112.5t-33 -101.5t-11.5 -157h-73q-3 134 22.5 206.5t90.5 151.5h-186v68h260v-55z" />
    <glyph glyph-name="uni2088" unicode="&#x2088;" horiz-adv-x="348" 
d="M318 20q0 -64 -41 -94.5t-103 -30.5q-144 0 -144 123q0 35 19 63t47 43q-55 30 -55 95q0 34 13 59t34 37t42 17t44 5q22 0 43 -5t42.5 -17t34.5 -37t13 -59q0 -62 -58 -93q69 -32 69 -106zM233 219q0 34 -14.5 46.5t-44.5 12.5q-32 0 -45.5 -13t-13.5 -46q0 -42 46 -59
l34 -12q38 30 38 71zM244 20q0 30 -15.5 44t-47.5 25l-37 13q-40 -34 -40 -82q0 -66 70 -66t70 66z" />
    <glyph glyph-name="uni2089" unicode="&#x2089;" horiz-adv-x="348" 
d="M314 125q0 -230 -175 -230q-17 0 -33 2.5t-23 4.5l-7 2v61q44 -9 62 -9q14 0 28.5 5t30.5 16.5t27 35.5t14 58q-29 -23 -71 -23q-63 0 -98 36.5t-35 102.5q0 64 36.5 107t101.5 43q43 0 72 -17t43.5 -48t20.5 -66t6 -81zM240 127q0 153 -65 153q-34 0 -50.5 -24
t-16.5 -63q0 -87 64 -87q17 0 34 5t26 11z" />
    <glyph glyph-name="Euro" unicode="&#x20ac;" 
d="M525 10q-72 -20 -132 -20q-32 0 -57 3.5t-58 16.5t-57.5 36t-45.5 65.5t-31 101.5h-119l10 78h101q-1 12 -1 39q0 20 2 54h-112l10 78h114q16 65 47 109.5t70 64t71 27t66 7.5q26 0 56.5 -5t48.5 -11l17 -5v-76q-70 20 -122 20q-28 0 -49.5 -4.5t-45.5 -17t-42.5 -40
t-29.5 -69.5h249l-10 -78h-248q-2 -34 -2 -54q0 -27 1 -39h259l-10 -78h-242q30 -144 160 -144q23 0 56 5.5t55 10.5l21 5v-80z" />
    <glyph glyph-name="uni2117" unicode="&#x2117;" horiz-adv-x="810" 
d="M750 315q0 -163 -97 -259t-248 -96t-248 95t-97 260q0 162 97.5 258.5t247.5 96.5t247.5 -96.5t97.5 -258.5zM670 315q0 127 -74.5 203.5t-190.5 76.5t-190.5 -75.5t-74.5 -204.5q0 -128 74.5 -204t190.5 -76t190.5 76.5t74.5 203.5zM554 379q0 -72 -40 -98.5t-124 -28.5
v-117h-77v370h97q73 0 108.5 -25.5t35.5 -100.5zM477 378q0 43 -15 55t-56 12h-16v-138q50 1 68.5 16.5t18.5 54.5z" />
    <glyph glyph-name="trademark" unicode="&#x2122;" horiz-adv-x="805" 
d="M725 280h-77l-1 277l-117 -218l-115 214l-3 -273h-79l14 349h-124v-349h-79v349h-114v71h373l127 -248l125 248h54z" />
    <glyph glyph-name="Omega" unicode="&#x2126;" horiz-adv-x="570" 
d="M550 0h-200v74q3 2 7.5 7t16.5 26t21.5 49t17 79.5t7.5 114.5q0 290 -135 290q-23 0 -41.5 -7t-36.5 -26.5t-30 -51t-19.5 -84t-7.5 -121.5q0 -64 7 -116t17.5 -80.5t21 -48t17.5 -25.5l7 -7v-73h-200v90h107q-3 3 -7.5 9t-16 29t-20.5 50t-16 73.5t-7 98.5
q0 81 10.5 143.5t30 100.5t41 62.5t49.5 35.5t48.5 14.5t45.5 3.5q30 0 55 -4.5t58.5 -25.5t56 -57.5t39 -106.5t16.5 -166q0 -85 -16.5 -150t-33.5 -88l-16 -22h106v-90z" />
    <glyph glyph-name="onethird" unicode="&#x2153;" horiz-adv-x="896" 
d="M230 270h-74v348l-96 -42v66l116 58h54v-430zM668 810l-360 -920h-80l360 920h80zM846 127q0 -137 -146 -137q-21 0 -45 4t-37 8l-14 5v63q51 -17 92 -17q40 0 58 16.5t18 59.5q0 66 -85 66h-47v60h47q32 0 53.5 15.5t21.5 49.5q0 29 -14.5 39.5t-45.5 10.5
q-18 0 -42.5 -4.5t-39.5 -9.5l-16 -4v60q51 20 102 20q50 0 90 -24t40 -86q0 -72 -67 -93q77 -17 77 -102z" />
    <glyph glyph-name="twothirds" unicode="&#x2154;" horiz-adv-x="896" 
d="M297 342l-8 -68h-230v63l106 129q57 69 57 117q0 36 -15.5 49.5t-49.5 13.5q-19 0 -43.5 -5t-39.5 -9l-14 -5v61q43 22 100 22q136 0 136 -123q0 -68 -86 -167l-69 -78h156zM668 810l-360 -920h-80l360 920h80zM846 127q0 -137 -146 -137q-21 0 -45 4t-37 8l-14 5v63
q51 -17 92 -17q40 0 58 16.5t18 59.5q0 66 -85 66h-47v60h47q32 0 53.5 15.5t21.5 49.5q0 29 -14.5 39.5t-45.5 10.5q-18 0 -42.5 -4.5t-39.5 -9.5l-16 -4v60q51 20 102 20q50 0 90 -24t40 -86q0 -72 -67 -93q77 -17 77 -102z" />
    <glyph glyph-name="uni2155" unicode="&#x2155;" horiz-adv-x="896" 
d="M230 270h-74v348l-96 -42v66l116 58h54v-430zM668 810l-360 -920h-80l360 920h80zM848 140q0 -150 -152 -150q-21 0 -43.5 4t-34.5 8l-12 4v64q56 -19 92 -19q34 0 55 18.5t21 71.5q0 33 -10.5 50t-22 20.5t-30.5 3.5q-15 0 -32.5 -6t-28.5 -12l-10 -6l-37 10l6 225h228
l-8 -68h-150l-4 -95q22 13 46 13q14 0 26.5 -1.5t32 -9.5t33.5 -21.5t24.5 -40t10.5 -63.5z" />
    <glyph glyph-name="uni2156" unicode="&#x2156;" horiz-adv-x="896" 
d="M297 342l-8 -68h-230v63l106 129q57 69 57 117q0 36 -15.5 49.5t-49.5 13.5q-19 0 -43.5 -5t-39.5 -9l-14 -5v61q43 22 100 22q136 0 136 -123q0 -68 -86 -167l-69 -78h156zM668 810l-360 -920h-80l360 920h80zM848 140q0 -150 -152 -150q-21 0 -43.5 4t-34.5 8l-12 4v64
q56 -19 92 -19q34 0 55 18.5t21 71.5q0 33 -10.5 50t-22 20.5t-30.5 3.5q-15 0 -32.5 -6t-28.5 -12l-10 -6l-37 10l6 225h228l-8 -68h-150l-4 -95q22 13 46 13q14 0 26.5 -1.5t32 -9.5t33.5 -21.5t24.5 -40t10.5 -63.5z" />
    <glyph glyph-name="uni2157" unicode="&#x2157;" horiz-adv-x="896" 
d="M298 405q0 -137 -146 -137q-21 0 -45 4t-37 8l-14 5v63q51 -17 92 -17q40 0 58 16.5t18 59.5q0 66 -85 66h-47v60h47q32 0 53.5 15.5t21.5 49.5q0 29 -14.5 39.5t-45.5 10.5q-18 0 -42.5 -4.5t-39.5 -9.5l-16 -4v60q51 20 102 20q50 0 90 -24t40 -86q0 -72 -67 -93
q77 -17 77 -102zM668 810l-360 -920h-80l360 920h80zM848 140q0 -150 -152 -150q-21 0 -43.5 4t-34.5 8l-12 4v64q56 -19 92 -19q34 0 55 18.5t21 71.5q0 33 -10.5 50t-22 20.5t-30.5 3.5q-15 0 -32.5 -6t-28.5 -12l-10 -6l-37 10l6 225h228l-8 -68h-150l-4 -95q22 13 46 13
q14 0 26.5 -1.5t32 -9.5t33.5 -21.5t24.5 -40t10.5 -63.5z" />
    <glyph glyph-name="uni2158" unicode="&#x2158;" horiz-adv-x="896" 
d="M333 439l-8 -67h-64v-98h-74v98h-165v51l63 277h82l-73 -261h94l10 142h63v-142h72zM668 810l-360 -920h-80l360 920h80zM848 140q0 -150 -152 -150q-21 0 -43.5 4t-34.5 8l-12 4v64q56 -19 92 -19q34 0 55 18.5t21 71.5q0 33 -10.5 50t-22 20.5t-30.5 3.5
q-15 0 -32.5 -6t-28.5 -12l-10 -6l-37 10l6 225h228l-8 -68h-150l-4 -95q22 13 46 13q14 0 26.5 -1.5t32 -9.5t33.5 -21.5t24.5 -40t10.5 -63.5z" />
    <glyph glyph-name="uni2159" unicode="&#x2159;" horiz-adv-x="896" 
d="M230 270h-74v348l-96 -42v66l116 58h54v-430zM668 810l-360 -920h-80l360 920h80zM787 142q0 46 -15 62.5t-50 16.5q-15 0 -31 -4t-25 -8l-9 -4v-29q0 -77 18 -102.5t47 -25.5q19 0 31.5 5t23 27t10.5 62zM861 142q0 -47 -13.5 -79t-36.5 -47t-44 -20.5t-45 -5.5
q-139 0 -139 192q0 113 42.5 181.5t128.5 68.5q17 0 36 -3.5t30 -6.5l10 -4v-62q-44 15 -77 15q-37 0 -61.5 -29.5t-31.5 -83.5q32 21 68 21q54 0 93.5 -30.5t39.5 -106.5z" />
    <glyph glyph-name="uni215A" unicode="&#x215a;" horiz-adv-x="896" 
d="M300 414q0 -150 -152 -150q-21 0 -43.5 4t-34.5 8l-12 4v64q56 -19 92 -19q34 0 55 18.5t21 71.5q0 33 -10.5 50t-22 20.5t-30.5 3.5q-15 0 -32.5 -6t-28.5 -12l-10 -6l-37 10l6 225h228l-8 -68h-150l-4 -95q22 13 46 13q14 0 26.5 -1.5t32 -9.5t33.5 -21.5t24.5 -40
t10.5 -63.5zM668 810l-360 -920h-80l360 920h80zM787 142q0 46 -15 62.5t-50 16.5q-15 0 -31 -4t-25 -8l-9 -4v-29q0 -77 18 -102.5t47 -25.5q19 0 31.5 5t23 27t10.5 62zM861 142q0 -47 -13.5 -79t-36.5 -47t-44 -20.5t-45 -5.5q-139 0 -139 192q0 113 42.5 181.5
t128.5 68.5q17 0 36 -3.5t30 -6.5l10 -4v-62q-44 15 -77 15q-37 0 -61.5 -29.5t-31.5 -83.5q32 21 68 21q54 0 93.5 -30.5t39.5 -106.5z" />
    <glyph glyph-name="oneeighth" unicode="&#x215b;" horiz-adv-x="896" 
d="M230 270h-74v348l-96 -42v66l116 58h54v-430zM668 810l-360 -920h-80l360 920h80zM866 115q0 -64 -41 -94.5t-103 -30.5q-144 0 -144 123q0 35 19 63t47 43q-55 30 -55 95q0 34 13 59t34 37t42 17t44 5q22 0 43 -5t42.5 -17t34.5 -37t13 -59q0 -62 -58 -93
q69 -32 69 -106zM781 314q0 34 -14.5 46.5t-44.5 12.5q-32 0 -45.5 -13t-13.5 -46q0 -42 46 -59l34 -12q38 30 38 71zM792 115q0 30 -15.5 44t-47.5 25l-37 13q-40 -34 -40 -82q0 -66 70 -66t70 66z" />
    <glyph glyph-name="threeeighths" unicode="&#x215c;" horiz-adv-x="896" 
d="M298 405q0 -137 -146 -137q-21 0 -45 4t-37 8l-14 5v63q51 -17 92 -17q40 0 58 16.5t18 59.5q0 66 -85 66h-47v60h47q32 0 53.5 15.5t21.5 49.5q0 29 -14.5 39.5t-45.5 10.5q-18 0 -42.5 -4.5t-39.5 -9.5l-16 -4v60q51 20 102 20q50 0 90 -24t40 -86q0 -72 -67 -93
q77 -17 77 -102zM668 810l-360 -920h-80l360 920h80zM866 115q0 -64 -41 -94.5t-103 -30.5q-144 0 -144 123q0 35 19 63t47 43q-55 30 -55 95q0 34 13 59t34 37t42 17t44 5q22 0 43 -5t42.5 -17t34.5 -37t13 -59q0 -62 -58 -93q69 -32 69 -106zM781 314q0 34 -14.5 46.5
t-44.5 12.5q-32 0 -45.5 -13t-13.5 -46q0 -42 46 -59l34 -12q38 30 38 71zM792 115q0 30 -15.5 44t-47.5 25l-37 13q-40 -34 -40 -82q0 -66 70 -66t70 66z" />
    <glyph glyph-name="fiveeighths" unicode="&#x215d;" horiz-adv-x="896" 
d="M300 414q0 -150 -152 -150q-21 0 -43.5 4t-34.5 8l-12 4v64q56 -19 92 -19q34 0 55 18.5t21 71.5q0 33 -10.5 50t-22 20.5t-30.5 3.5q-15 0 -32.5 -6t-28.5 -12l-10 -6l-37 10l6 225h228l-8 -68h-150l-4 -95q22 13 46 13q14 0 26.5 -1.5t32 -9.5t33.5 -21.5t24.5 -40
t10.5 -63.5zM668 810l-360 -920h-80l360 920h80zM866 115q0 -64 -41 -94.5t-103 -30.5q-144 0 -144 123q0 35 19 63t47 43q-55 30 -55 95q0 34 13 59t34 37t42 17t44 5q22 0 43 -5t42.5 -17t34.5 -37t13 -59q0 -62 -58 -93q69 -32 69 -106zM781 314q0 34 -14.5 46.5
t-44.5 12.5q-32 0 -45.5 -13t-13.5 -46q0 -42 46 -59l34 -12q38 30 38 71zM792 115q0 30 -15.5 44t-47.5 25l-37 13q-40 -34 -40 -82q0 -66 70 -66t70 66z" />
    <glyph glyph-name="seveneighths" unicode="&#x215e;" horiz-adv-x="896" 
d="M304 645q-50 -75 -69.5 -112.5t-33 -101.5t-11.5 -157h-73q-3 134 22.5 206.5t90.5 151.5h-186v68h260v-55zM668 810l-360 -920h-80l360 920h80zM866 115q0 -64 -41 -94.5t-103 -30.5q-144 0 -144 123q0 35 19 63t47 43q-55 30 -55 95q0 34 13 59t34 37t42 17t44 5
q22 0 43 -5t42.5 -17t34.5 -37t13 -59q0 -62 -58 -93q69 -32 69 -106zM781 314q0 34 -14.5 46.5t-44.5 12.5q-32 0 -45.5 -13t-13.5 -46q0 -42 46 -59l34 -12q38 30 38 71zM792 115q0 30 -15.5 44t-47.5 25l-37 13q-40 -34 -40 -82q0 -66 70 -66t70 66z" />
    <glyph glyph-name="uni215F" unicode="&#x215f;" horiz-adv-x="548" 
d="M230 270h-74v348l-96 -42v66l116 58h54v-430zM668 810l-360 -920h-80l360 920h80z" />
    <glyph glyph-name="arrowleft" unicode="&#x2190;" horiz-adv-x="772" 
d="M682 326h-489l181 -220h-110l-214 260l213 260h110l-180 -220h489v-80z" />
    <glyph glyph-name="arrowup" unicode="&#x2191;" horiz-adv-x="772" 
d="M646 366l-218 173v-489h-84v489l-218 -174v103l260 214l260 -213v-103z" />
    <glyph glyph-name="arrowright" unicode="&#x2192;" horiz-adv-x="772" 
d="M722 366l-214 -260h-110l181 220h-489v80h489l-180 220h110z" />
    <glyph glyph-name="arrowdown" unicode="&#x2193;" horiz-adv-x="772" 
d="M646 263l-260 -213l-260 214v103l218 -174v489h84v-489l218 173v-103z" />
    <glyph glyph-name="uni2196" unicode="&#x2196;" horiz-adv-x="772" 
d="M618 167l-57 -57l-346 346l-28 -283l-78 78l34 334l335 33l78 -78l-284 -28z" />
    <glyph glyph-name="uni2197" unicode="&#x2197;" horiz-adv-x="772" 
d="M663 251l-78 -78l-28 283l-346 -346l-57 57l346 345l-284 28l78 78l335 -33z" />
    <glyph glyph-name="uni2198" unicode="&#x2198;" horiz-adv-x="772" 
d="M663 477l-34 -334l-335 -33l-78 78l284 27l-346 346l57 57l346 -346l28 283z" />
    <glyph glyph-name="uni2199" unicode="&#x2199;" horiz-adv-x="772" 
d="M618 561l-346 -346l284 -27l-78 -78l-335 33l-34 334l78 78l28 -283l346 346z" />
    <glyph glyph-name="uni21E0" unicode="&#x21e0;" horiz-adv-x="800" 
d="M710 326h-350v-136l-310 175l310 175v-134h350v-80z" />
    <glyph glyph-name="uni21E2" unicode="&#x21e2;" horiz-adv-x="800" 
d="M440 326h-350v80h350v134l310 -175l-310 -175v136z" />
    <glyph glyph-name="uni21E6" unicode="&#x21e6;" horiz-adv-x="702" 
d="M612 326h-423l147 -170h-113l-173 210l172 210h113l-146 -170h423v-80z" />
    <glyph glyph-name="uni21E8" unicode="&#x21e8;" horiz-adv-x="702" 
d="M652 366l-173 -210h-113l147 170h-423v80h423l-146 170h113z" />
    <glyph glyph-name="partialdiff" unicode="&#x2202;" 
d="M490 280q0 -290 -215 -290q-37 0 -70 9t-68 32.5t-56 75t-21 126.5q0 60 17 104t47 67.5t65 34.5t76 11q29 0 61.5 -11.5t50.5 -22.5l18 -12q-25 123 -94.5 176t-188.5 66v74q84 -4 150 -30t108 -66.5t69.5 -97t39 -116.5t11.5 -130zM400 270l-3 74q-60 37 -122 37
q-68 0 -96.5 -35t-28.5 -113q0 -55 10 -91.5t29.5 -53.5t39 -23t46.5 -6q57 0 91 45t34 166z" />
    <glyph glyph-name="Delta" unicode="&#x2206;" horiz-adv-x="500" 
d="M490 0h-480l186 700h108zM378 83l-128 539l-128 -539h256z" />
    <glyph glyph-name="product" unicode="&#x220f;" horiz-adv-x="770" 
d="M730 700l-10 -85h-140v-495q0 -33 11 -43.5t39 -10.5q15 0 37.5 4.5t37.5 9.5l15 4v-74q-49 -20 -110 -20t-90.5 29.5t-29.5 103.5v492h-210v-615h-90v615h-150v85h690z" />
    <glyph glyph-name="summation" unicode="&#x2211;" horiz-adv-x="491" 
d="M461 700l-10 -85h-306l131 -245l-137 -285h312v-85h-411v55l143 315l-143 272v58h421z" />
    <glyph glyph-name="minus" unicode="&#x2212;" horiz-adv-x="600" 
d="M510 295h-420v85h420v-85z" />
    <glyph glyph-name="uni2215" unicode="&#x2215;" horiz-adv-x="200" 
d="M320 810l-360 -920h-80l360 920h80z" />
    <glyph glyph-name="uni2219" unicode="&#x2219;" horiz-adv-x="361" 
d="M261 338q0 -34 -23 -58.5t-57 -24.5t-57.5 24.5t-23.5 58.5t23.5 58t57.5 24t57 -24t23 -58z" />
    <glyph glyph-name="radical" unicode="&#x221a;" horiz-adv-x="504" 
d="M504 610h-84l-123 -610h-114l-158 530h103l108 -473l114 643h154v-90z" />
    <glyph glyph-name="infinity" unicode="&#x221e;" horiz-adv-x="859" 
d="M799 337q0 -87 -54.5 -130.5t-129.5 -43.5q-104 0 -185 104q-94 -104 -186 -104q-74 0 -129 43t-55 131q0 86 54.5 129.5t129.5 43.5q56 0 105.5 -31t79.5 -75q79 106 186 106q76 0 130 -43t54 -130zM709 337q0 42 -26.5 68t-77.5 26q-22 0 -43.5 -9.5t-37.5 -23.5
t-28.5 -28t-19.5 -24l-6 -9q2 -4 6.5 -10t18.5 -22.5t29 -29t37 -22.5t44 -10q52 0 78 27t26 67zM389 337q-2 4 -6 10t-17.5 22.5t-28.5 29t-37.5 22.5t-45.5 10q-51 0 -77.5 -26t-26.5 -68q0 -40 25.5 -67t78.5 -27q35 0 68.5 23.5t49.5 47.5z" />
    <glyph glyph-name="uni2224" unicode="&#x2224;" horiz-adv-x="361" 
d="M261 338q0 -34 -23 -58.5t-57 -24.5t-57.5 24.5t-23.5 58.5t23.5 58t57.5 24t57 -24t23 -58z" />
    <glyph glyph-name="logicaland" unicode="&#x2227;" horiz-adv-x="361" 
d="M261 338q0 -34 -23 -58.5t-57 -24.5t-57.5 24.5t-23.5 58.5t23.5 58t57.5 24t57 -24t23 -58z" />
    <glyph glyph-name="integral" unicode="&#x222b;" horiz-adv-x="358" 
d="M458 702l-13 -67q-45 21 -94 21q-73 0 -88 -89l-91 -516q-9 -53 -19 -86.5t-29 -66t-47 -50t-72 -28t-105 -10.5l12 73q88 8 120.5 39t48.5 121l91 522q16 92 62.5 128.5t116.5 36.5q30 0 56.5 -7t38.5 -14z" />
    <glyph glyph-name="congruent" unicode="&#x2245;" horiz-adv-x="630" 
d="M540 574q-45 -34 -98 -34q-47 0 -129 35l-32 14q-48 21 -83 21q-48 0 -108 -36v90q57 36 110 36q43 0 111 -27l33 -13q77 -31 102 -31q38 0 94 34v-89zM540 390h-450v90h450v-90zM540 190h-450v90h450v-90z" />
    <glyph glyph-name="approxequal" unicode="&#x2248;" horiz-adv-x="630" 
d="M540 390q-45 -34 -98 -34q-47 0 -129 35l-32 14q-48 21 -83 21q-48 0 -108 -36v90q57 36 110 36q43 0 111 -27l33 -13q77 -31 102 -31q38 0 94 34v-89zM540 190q-45 -34 -98 -34q-47 0 -129 35l-32 14q-48 21 -83 21q-48 0 -108 -36v90q57 36 110 36q43 0 111 -27l33 -13
q6 -2 20.5 -8l19.5 -8t16 -6t17 -5t14 -2.5t15 -1.5q38 0 94 34v-89z" />
    <glyph glyph-name="notequal" unicode="&#x2260;" horiz-adv-x="630" 
d="M540 190h-262l-56 -110h-72l56 110h-116v90h161l56 110h-217v90h262l56 110h72l-56 -110h116v-90h-161l-56 -110h217v-90z" />
    <glyph glyph-name="lessequal" unicode="&#x2264;" horiz-adv-x="630" 
d="M540 130l-450 185v80l450 185v-100l-353 -123l353 -127v-100zM540 0h-450v90h450v-90z" />
    <glyph glyph-name="greaterequal" unicode="&#x2265;" horiz-adv-x="630" 
d="M540 315l-450 -185v100l353 127l-353 123v100l450 -185v-80zM540 0h-450v90h450v-90z" />
    <glyph glyph-name="dotmath" unicode="&#x22c5;" horiz-adv-x="361" 
d="M261 338q0 -34 -23 -58.5t-57 -24.5t-57.5 24.5t-23.5 58.5t23.5 58t57.5 24t57 -24t23 -58z" />
    <glyph glyph-name="H18543" unicode="&#x25aa;" horiz-adv-x="910" 
d="M100 710h710v-710h-710v710z" />
    <glyph glyph-name="H18551" unicode="&#x25ab;" horiz-adv-x="910" 
d="M810 0h-710v710h710v-710zM720 85v540h-530v-540h530z" />
    <glyph glyph-name="uni25AF" unicode="&#x25af;" horiz-adv-x="605" 
d="M100 0v700h405v-700h-405zM190 90h225v520h-225v-520z" />
    <glyph glyph-name="uni25B6" unicode="&#x25b6;" horiz-adv-x="650" 
d="M600 365l-510 -275v550z" />
    <glyph glyph-name="uni25B7" unicode="&#x25b7;" horiz-adv-x="702" 
d="M662 365l-572 -299v598zM468 365l-288 151v-302z" />
    <glyph glyph-name="uni25C0" unicode="&#x25c0;" horiz-adv-x="650" 
d="M560 90l-510 275l510 275v-550z" />
    <glyph glyph-name="uni25C1" unicode="&#x25c1;" horiz-adv-x="702" 
d="M612 66l-572 299l572 299v-598zM522 214v302l-288 -151z" />
    <glyph glyph-name="lozenge" unicode="&#x25ca;" horiz-adv-x="610" 
d="M575 350l-270 -381l-270 381l270 380zM471 350l-166 239l-167 -239l167 -241z" />
    <glyph glyph-name="parenleft.case" horiz-adv-x="313" 
d="M293 -130h-88q-6 10 -15.5 28.5t-34.5 74t-44.5 110.5t-35 129t-15.5 138t15 137t36 131.5t42.5 107.5t36.5 76l15 28h88l-14 -27t-32 -71t-40.5 -108t-32 -130t-14.5 -144t13.5 -142.5t33 -132.5t39.5 -105.5t34 -73.5z" />
    <glyph glyph-name="parenright.case" horiz-adv-x="313" 
d="M253 350q0 -101 -36.5 -221t-72.5 -189l-36 -70h-88l14 27t32 71t40.5 108t32 130t14.5 144q0 108 -33.5 228t-66.5 186l-33 66h88q6 -10 15.5 -28.5t34.5 -74t44.5 -110.5t35 -129t15.5 -138z" />
    <glyph glyph-name="hyphen.case" horiz-adv-x="426" 
d="M346 307h-266v85h266v-85z" />
    <glyph glyph-name="bracketleft.case" horiz-adv-x="350" 
d="M340 -130h-240v960h240v-81h-150v-798h150v-81z" />
    <glyph glyph-name="bracketright.case" horiz-adv-x="350" 
d="M250 -130h-240v81h150v798h-150v81h240v-960z" />
    <glyph glyph-name="braceleft.case" horiz-adv-x="343" 
d="M333 -130h-17q-102 0 -152.5 48t-50.5 155v124q0 29 -9.5 52t-23.5 34t-27.5 18t-22.5 9l-10 1v80q4 0 10 1.5t22 9t28.5 18.5t22.5 33.5t10 51.5v122q0 107 50.5 155t152.5 48h17v-78h-17q-61 0 -87 -29.5t-26 -98.5v-129q0 -55 -30.5 -93t-76.5 -52q48 -12 77.5 -48.5
t29.5 -94.5v-131q0 -69 26 -98.5t87 -29.5h17v-78z" />
    <glyph glyph-name="braceright.case" horiz-adv-x="343" 
d="M323 311q-4 0 -10 -1.5t-22 -8.5t-28.5 -18t-22.5 -33.5t-10 -52.5v-124q0 -107 -50.5 -155t-152.5 -48h-17v78h17q61 0 87 29.5t26 98.5v131q0 58 29.5 94.5t77.5 48.5q-46 14 -76.5 52t-30.5 93v129q0 69 -26 98.5t-87 29.5h-17v78h17q102 0 152.5 -48t50.5 -155v-122
q0 -29 9.5 -51.5t23 -33.5t27.5 -18t24 -9l9 -2v-80z" />
    <glyph glyph-name="guillemotleft.case" horiz-adv-x="511" 
d="M451 177h-85l-111 173l111 173h85l-81 -173zM256 177h-85l-111 173l111 173h85l-81 -173z" />
    <glyph glyph-name="uni00AD.case" horiz-adv-x="426" 
d="M346 307h-266v85h266v-85z" />
    <glyph glyph-name="guillemotright.case" horiz-adv-x="511" 
d="M451 350l-111 -173h-85l81 173l-81 173h85zM256 350l-111 -173h-85l81 173l-81 173h85z" />
    <glyph glyph-name="endash.case" horiz-adv-x="660" 
d="M570 307h-480v85h480v-85z" />
    <glyph glyph-name="emdash.case" horiz-adv-x="760" 
d="M670 307h-580v85h580v-85z" />
    <glyph glyph-name="guilsinglleft.case" horiz-adv-x="316" 
d="M256 177h-85l-111 173l111 173h85l-81 -173z" />
    <glyph glyph-name="guilsinglright.case" horiz-adv-x="316" 
d="M256 350l-111 -173h-85l81 173l-81 173h85z" />
    <glyph glyph-name="zero.dnom" horiz-adv-x="348" 
d="M316 211q0 -70 -11.5 -116t-33 -67.5t-44 -29.5t-53.5 -8q-29 0 -52 8.5t-44.5 31t-33.5 68.5t-12 113q0 69 12.5 115.5t34.5 68t44 29.5t51 8q28 0 50 -8t44.5 -29.5t35 -68t12.5 -115.5zM242 211q0 99 -17.5 130.5t-50.5 31.5q-16 0 -26 -4.5t-20.5 -19.5t-16 -49.5
t-5.5 -88.5t6 -89t17.5 -49.5t21.5 -19t23 -4.5t23 5t21.5 20t17.5 50t6 87z" />
    <glyph glyph-name="one.dnom" horiz-adv-x="348" 
d="M230 0h-74v344l-96 -42v66l116 58h54v-426z" />
    <glyph glyph-name="two.dnom" horiz-adv-x="348" 
d="M297 68l-8 -68h-230v63l106 129q19 23 28.5 36t19 34.5t9.5 42.5q0 36 -15.5 49.5t-49.5 13.5q-19 0 -43.5 -5t-39.5 -9l-14 -5v61q43 22 100 22q136 0 136 -123q0 -31 -17 -65.5t-30 -51t-39 -46.5l-69 -78h156z" />
    <glyph glyph-name="three.dnom" horiz-adv-x="348" 
d="M298 127q0 -137 -146 -137q-21 0 -45 4t-37 8l-14 5v63q51 -17 92 -17q40 0 58 16.5t18 59.5q0 66 -85 66h-47v60h47q32 0 53.5 15.5t21.5 49.5q0 29 -14.5 39.5t-45.5 10.5q-18 0 -42.5 -4.5t-39.5 -9.5l-16 -4v60q51 20 102 20q50 0 90 -24t40 -86q0 -72 -67 -93
q77 -17 77 -102z" />
    <glyph glyph-name="four.dnom" horiz-adv-x="348" 
d="M333 165l-8 -67h-64v-98h-74v98h-165v51l63 277h82l-73 -261h94l10 142h63v-142h72z" />
    <glyph glyph-name="five.dnom" horiz-adv-x="348" 
d="M300 140q0 -150 -152 -150q-21 0 -43.5 4t-34.5 8l-12 4v64q56 -19 92 -19q34 0 55 18.5t21 71.5q0 33 -10.5 50t-22 20.5t-30.5 3.5q-15 0 -32.5 -6t-28.5 -12l-10 -6l-37 10l6 225h228l-8 -68h-150l-4 -95q22 13 46 13q14 0 26.5 -1.5t32 -9.5t33.5 -21.5t24.5 -40
t10.5 -63.5z" />
    <glyph glyph-name="six.dnom" horiz-adv-x="348" 
d="M239 142q0 46 -15 62.5t-50 16.5q-15 0 -31 -4t-25 -8l-9 -4v-29q0 -77 18 -102.5t47 -25.5q19 0 31.5 5t23 27t10.5 62zM313 142q0 -47 -13.5 -79t-36.5 -47t-44 -20.5t-45 -5.5q-139 0 -139 192q0 113 42.5 181.5t128.5 68.5q17 0 36 -3.5t30 -6.5l10 -4v-62
q-44 15 -77 15q-37 0 -61.5 -29.5t-31.5 -83.5q32 21 68 21q54 0 93.5 -30.5t39.5 -106.5z" />
    <glyph glyph-name="seven.dnom" horiz-adv-x="348" 
d="M304 371q-50 -75 -69.5 -112.5t-33 -101.5t-11.5 -157h-73q-3 134 22.5 206.5t90.5 151.5h-186v68h260v-55z" />
    <glyph glyph-name="eight.dnom" horiz-adv-x="348" 
d="M318 115q0 -64 -41 -94.5t-103 -30.5q-144 0 -144 123q0 35 19 63t47 43q-55 30 -55 95q0 34 13 59t34 37t42 17t44 5q22 0 43 -5t42.5 -17t34.5 -37t13 -59q0 -62 -58 -93q69 -32 69 -106zM233 314q0 34 -14.5 46.5t-44.5 12.5q-32 0 -45.5 -13t-13.5 -46q0 -42 46 -59
l34 -12q38 30 38 71zM244 115q0 30 -15.5 44t-47.5 25l-37 13q-40 -34 -40 -82q0 -66 70 -66t70 66z" />
    <glyph glyph-name="nine.dnom" horiz-adv-x="348" 
d="M314 220q0 -230 -175 -230q-17 0 -33 2t-23 4l-7 3v61q44 -9 62 -9q14 0 28.5 5t30.5 16.5t27 35.5t14 58q-29 -23 -71 -23q-63 0 -98 36.5t-35 102.5q0 64 36.5 107t101.5 43q43 0 72 -17t43.5 -48t20.5 -66t6 -81zM240 222q0 153 -65 153q-34 0 -50.5 -24t-16.5 -63
q0 -87 64 -87q17 0 34 5.5t26 10.5z" />
    <glyph glyph-name="registered.salt" horiz-adv-x="415" 
d="M385 528q0 -84 -50 -133.5t-127 -49.5q-78 0 -128 49t-50 134q0 83 50.5 132.5t127.5 49.5t127 -49.5t50 -132.5zM335 528q0 62 -35.5 98.5t-91.5 36.5t-92 -36.5t-36 -98.5t36 -98.5t92 -36.5t91.5 36.5t35.5 98.5zM283 439h-50l-8 31q-7 31 -20 41l-15 -1v-71h-43v185
h56q74 0 74 -56q0 -33 -32 -47q13 -11 23 -41zM233 568q0 16 -6.5 20.5t-28.5 4.5h-8v-54q26 1 34.5 7.5t8.5 21.5z" />
    <glyph glyph-name="dollar.tf" 
d="M435 193q0 -154 -120 -185v-118h-80v110q-22 1 -48 6t-41 10l-14 4v82q62 -22 110 -22q49 0 76 21t27 85q0 45 -19.5 72.5t-56.5 54.5l-47 34q-27 19 -45 37.5t-35 55.5t-17 82q0 138 120 170v118h80v-111q19 -2 40 -7t32 -9l11 -4v-79q-49 23 -100 23q-48 0 -71.5 -22
t-23.5 -71q0 -30 11 -53t22.5 -33.5t36.5 -29.5l43 -33q109 -83 109 -188z" />
    <glyph glyph-name="zero.tf" 
d="M500 350q0 -94 -13 -161.5t-32.5 -105.5t-50.5 -59.5t-59 -27.5t-65 -6q-35 0 -63.5 7t-59 29.5t-51 60.5t-33.5 105t-13 158q0 93 14 161.5t34.5 105.5t52 59t58.5 28t61 6t61 -6t58 -28t52 -59.5t35 -105.5t14 -161zM410 350q0 90 -9 149.5t-28 89t-40.5 40.5t-52.5 11
q-32 0 -52.5 -9.5t-40 -38.5t-28.5 -89t-9 -153q0 -75 8 -129.5t19.5 -85t30 -48t35 -22.5t37.5 -5t38 5.5t35 24t30 49.5t19.5 84.5t7.5 126.5z" />
    <glyph glyph-name="one.tf" 
d="M520 0h-430v80h170v520l-180 -61v78l200 83h70v-620h170v-80z" />
    <glyph glyph-name="two.tf" 
d="M487 85l-10 -85h-372v86l172 215q29 37 47 62.5t35.5 67t17.5 79.5q0 70 -31.5 96t-94.5 26q-32 0 -68 -7t-56 -13l-20 -7v73q64 32 150 32q99 0 154 -43.5t55 -151.5q0 -52 -23 -107t-46 -86.5t-61 -77.5l-134 -159h285z" />
    <glyph glyph-name="three.tf" 
d="M470 207q0 -217 -227 -217q-33 0 -69 6t-55 12l-19 6v75q75 -24 137 -24q72 0 107.5 32.5t35.5 112.5q0 71 -47 99t-112 28h-61v73h62q33 0 62.5 9.5t54.5 39.5t25 76q0 58 -32 78.5t-85 20.5q-31 0 -67.5 -6.5t-57.5 -13.5l-22 -6v73q72 29 153 29q35 0 66.5 -7t64 -24
t51.5 -53t19 -87q0 -64 -36.5 -104t-91.5 -57q67 -17 105.5 -55t38.5 -116z" />
    <glyph glyph-name="four.tf" 
d="M537 250l-10 -84h-108v-166h-90v166h-285v72l113 462h104l-132 -450h200l14 240h76v-240h118z" />
    <glyph glyph-name="five.tf" 
d="M473 229q0 -239 -237 -239q-30 0 -63.5 5.5t-51.5 10.5l-18 6v77q78 -25 137 -25q29 0 51 6t44.5 22t35 51t12.5 87q0 47 -10.5 77.5t-31 43t-37.5 16t-43 3.5q-27 0 -56.5 -9t-45.5 -18l-16 -9l-45 12l10 354h355l-10 -84h-261l-8 -194q51 22 95 22q194 0 194 -215z" />
    <glyph glyph-name="six.tf" 
d="M495 233q0 -75 -21 -126.5t-56 -75t-68 -32.5t-70 -9q-44 0 -78.5 12t-67.5 43.5t-51 96t-18 158.5q0 189 67 299.5t201 110.5q27 0 54.5 -5t41.5 -9l14 -5v-72q-54 19 -112 19q-75 0 -120 -61.5t-53 -172.5q66 46 132 46q38 0 70.5 -9t65 -31.5t51 -67.5t18.5 -109z
M405 233q0 83 -30 115.5t-95 32.5q-28 0 -59 -9.5t-48 -18.5l-17 -9q-1 -35 -1 -54q0 -72 10 -120t29 -71t39 -31.5t47 -8.5t46.5 5.5t39 22.5t29.5 53.5t10 92.5z" />
    <glyph glyph-name="seven.tf" 
d="M500 626q-66 -91 -98.5 -144t-63 -127.5t-40 -156.5t-7.5 -198h-90q-3 119 8 207.5t41 160.5t66.5 125.5t97.5 122.5h-354v84h440v-74z" />
    <glyph glyph-name="eight.tf" 
d="M503 186q0 -101 -62 -148.5t-161 -47.5q-107 0 -165 45t-58 148q0 63 35 109.5t82 69.5q-22 14 -35 24t-30.5 29.5t-25.5 46.5t-8 63q0 54 19.5 92.5t52 57.5t65 27t68.5 8q35 0 67.5 -8t65.5 -27t52.5 -57t19.5 -92q0 -103 -107 -160q59 -25 92 -65.5t33 -114.5z
M395 525q0 64 -29.5 89.5t-85.5 25.5q-57 0 -86 -26t-29 -89q0 -81 84 -111l67 -24q2 2 6 5q22 19 34.5 31t25.5 39.5t13 59.5zM413 186q0 32 -9.5 55t-28 37.5t-35.5 22.5t-43 16l-69 22q-28 -24 -40 -36.5t-26.5 -44.5t-14.5 -72q0 -126 133 -126t133 126z" />
    <glyph glyph-name="nine.tf" 
d="M496 366q0 -89 -16.5 -157t-43 -108.5t-63.5 -66.5t-73.5 -35t-77.5 -9q-19 0 -41 3t-35 5l-12 3v72q58 -9 88 -9q21 0 41.5 4.5t45.5 20t44 40t33.5 68.5t18.5 103q-19 -17 -57 -33t-80 -16q-97 0 -150.5 59.5t-53.5 160.5q0 103 55.5 171t156.5 68q65 0 110 -26
t68 -75.5t32.5 -107.5t9.5 -135zM406 364q0 61 -5 107t-18 87t-38.5 63t-63.5 22q-66 0 -96.5 -45.5t-30.5 -115.5q0 -163 123 -163q54 0 129 45z" />
    <glyph glyph-name="cent.tf" 
d="M465 10q-42 -16 -90 -19v-101h-80v106q-160 33 -160 266q0 229 160 270v108h80v-100q23 -1 45.5 -5.5t33.5 -8.5l11 -5v-77q-50 19 -99 19q-29 0 -50 -6t-44 -24.5t-35 -61.5t-12 -109q0 -60 11.5 -100.5t32.5 -59.5t41.5 -25.5t47.5 -6.5q21 0 48 5t43 11l16 5v-81z" />
    <glyph glyph-name="sterling.tf" 
d="M510 0h-449v81h120v279h-120v76h120v94q0 97 50.5 138.5t125.5 41.5q42 0 77.5 -7t50.5 -14l15 -7v-79q-68 28 -137 28q-20 0 -33.5 -3t-29 -12t-23.5 -31t-8 -55v-94h201l-10 -76h-191v-279h241v-81z" />
    <glyph glyph-name="currency.tf" 
d="M511 105l-64 -63l-69 69q-42 -21 -98 -21t-98 21l-69 -69l-64 63l66 66q-32 51 -32 134t32 134l-66 66l64 63l69 -69q42 21 98 21t98 -21l69 69l64 -63l-66 -66q32 -51 32 -134t-32 -134zM387 305q0 146 -107 146t-107 -146t107 -146t107 146z" />
    <glyph glyph-name="yen.tf" 
d="M520 700l-159 -327h134v-84h-170v-87h170v-84h-170v-118h-90v118h-170v84h170v87h-170v84h134l-159 327h107l133 -335l133 335h107z" />
    <glyph glyph-name="Euro.tf" 
d="M535 10q-62 -20 -122 -20q-33 0 -59.5 3t-63 17.5t-63 39t-50.5 71.5t-34 112h-118l10 78h101q-1 13 -1 39q0 20 2 54h-112l10 78h113q13 59 39.5 103t55 67t65 37t62 17.5t53.5 3.5q26 0 54 -5t43 -11l15 -5v-76q-60 20 -112 20q-148 0 -185 -151h247l-10 -78h-248
q-2 -34 -2 -54q0 -27 1 -39h259l-10 -78h-240q34 -164 178 -164q23 0 53.5 5.5t49.5 10.5l19 5v-80z" />
    <glyph glyph-name="f_b" horiz-adv-x="910" 
d="M430 618q-76 38 -138 38q-52 0 -72 -26t-20 -76v-24h110l-10 -69h-100v-461h-90v461h-80v69h80v29q0 171 179 171q38 0 79 -14t61 -26l91 30v-242q6 7 16.5 17.5t44.5 27.5t69 17q190 0 190 -272q0 -73 -18 -127t-42.5 -82t-59.5 -44.5t-60 -20.5t-52 -4q-43 0 -87.5 8
t-67.5 16l-23 7v597zM750 268q0 56 -8 95.5t-18.5 59t-29 30t-31 12t-33.5 1.5q-50 0 -110 -47v-347q40 -10 91 -10q139 0 139 206z" />
    <glyph glyph-name="f_h" horiz-adv-x="935" 
d="M430 619q-78 37 -138 37q-52 0 -72 -26t-20 -76v-24h120l-10 -69h-110v-461h-90v461h-90v69h90v29q0 171 179 171q31 0 67.5 -11t57.5 -21l21 -11l85 33v-254l24 20.5t59.5 33t84.5 20.5q72 0 112 -36t40 -122v-382h-90v385q0 25 -6 40t-19 22t-26 9t-34 2
q-30 0 -66.5 -13.5t-57.5 -26.5l-21 -14v-404h-90v619z" />
    <glyph glyph-name="f_j" horiz-adv-x="620" 
d="M534 670q0 -25 -17 -42.5t-42 -17.5t-42 17.5t-17 42.5t17 42.5t42 17.5t42 -17.5t17 -42.5zM520 -61q0 -76 -35 -107.5t-97 -31.5q-19 0 -43.5 4t-39.5 8l-15 3v77q60 -13 87 -13q29 0 41 13.5t12 48.5v520h-230v-461h-90v461h-80v69h80v49q0 151 159 151q23 0 46 -4
t34 -8l11 -5v-72q-43 15 -88 15q-72 0 -72 -72v-54h320v-591z" />
    <glyph glyph-name="f_k" horiz-adv-x="845" 
d="M830 0l-105 -10l-184 315l158 225h111l-177 -223zM430 618q-17 9 -59 23.5t-79 14.5q-52 0 -72 -26t-20 -76v-24h110l-10 -69h-100v-461h-90v461h-80v69h80v29q0 171 179 171q70 0 144 -43l87 33v-720h-90v618z" />
    <glyph glyph-name="f_t" horiz-adv-x="670" 
d="M430 530v150l90 10v-160h130l-10 -69h-120v-341q0 -33 11 -43.5t39 -10.5q15 0 35 4t33 8l12 4v-76q-45 -16 -100 -16q-61 0 -90.5 29.5t-29.5 103.5v338h-230v-461h-90v461h-80v69h80v49q0 151 159 151q21 0 41 -3.5t30 -6.5l10 -4v-72q-37 12 -78 12q-72 0 -72 -72v-54
h230z" />
    </font>
</defs>
</svg>
